<?xml version="1.0" encoding="UTF-8"?>
<svg version="1.1" xmlns="http://www.w3.org/2000/svg" width="610" height="607">
<path d="M0 0 C0 0.66 0 1.32 0 2 C0.66 2 1.32 2 2 2 C2.51433594 3.09828125 2.51433594 3.09828125 3.0390625 4.21875 C7.566075 13.58498275 12.71720062 22.5250404 18.02392578 31.47070312 C20.83638062 36.224629 23.54256418 40.96270296 25.95581055 45.93066406 C28.23276411 50.4430462 30.80666771 54.79958468 33.3125 59.1875 C37.45160686 66.46747208 41.52275029 73.76759376 45.45703125 81.16015625 C47.65409244 85.20386127 49.99412322 89.15926246 52.328125 93.125 C54.37838508 96.65068089 56.32594597 100.22513663 58.265625 103.8125 C60.50635426 107.93059702 62.78359689 112.02793494 65.0625 116.125 C65.67992065 117.23512451 65.67992065 117.23512451 66.30981445 118.36767578 C66.71417725 119.0945459 67.11854004 119.82141602 67.53515625 120.5703125 C68.13481201 121.6536084 68.13481201 121.6536084 68.74658203 122.75878906 C69.62551648 124.33039371 70.51835899 125.89426274 71.42138672 127.45214844 C71.87916504 128.24911133 72.33694336 129.04607422 72.80859375 129.8671875 C73.22810303 130.5876123 73.6476123 131.30803711 74.07983398 132.05029297 C75 134 75 134 75 137 C75.66 137 76.32 137 77 137 C77.54011719 138.09828125 78.08023437 139.1965625 78.63671875 140.328125 C81.24123511 145.53486803 84.02009908 150.64219661 86.8125 155.75 C87.34004883 156.71848877 87.86759766 157.68697754 88.41113281 158.68481445 C91.7706832 164.82871324 95.22219967 170.88991042 98.890625 176.85546875 C100 179 100 179 100 182 C100.66 182 101.32 182 102 182 C102.42410156 182.87140625 102.84820312 183.7428125 103.28515625 184.640625 C107.20841547 192.63282577 111.44756801 200.34412863 116 208 C116.9880026 209.68234196 117.96805998 211.36939349 118.9375 213.0625 C119.33839844 213.75472656 119.73929687 214.44695312 120.15234375 215.16015625 C121 217 121 217 121 220 C121.66 220 122.32 220 123 220 C123.54398437 221.10472656 124.08796875 222.20945312 124.6484375 223.34765625 C127.19569383 228.43881432 129.89832407 233.44064646 132.625 238.4375 C133.14771484 239.39672363 133.67042969 240.35594727 134.20898438 241.34423828 C137.90964837 248.09851078 141.72625144 254.77256105 145.70166016 261.36889648 C147.55265547 264.4556033 149.30261266 267.54458325 150.88671875 270.77734375 C153.46962488 276.04019054 156.40641825 281.09829659 159.3125 286.1875 C163.43194351 293.43804124 167.52088394 300.69406978 171.43359375 308.05859375 C172.59909664 310.24718147 173.77817689 312.42498423 174.97265625 314.59765625 C175.30088379 315.19755371 175.62911133 315.79745117 175.96728516 316.41552734 C176.88094537 318.08421024 177.79779019 319.75114832 178.71484375 321.41796875 C180 324 180 324 180 326 C180.66 326 181.32 326 182 326 C182.42410156 326.87140625 182.84820312 327.7428125 183.28515625 328.640625 C186.72641508 335.64993631 190.365962 342.4458412 194.35546875 349.1640625 C201 360.62232779 201 360.62232779 201 364 C201.66 364 202.32 364 203 364 C203.52464844 365.08023437 204.04929687 366.16046875 204.58984375 367.2734375 C207.37341259 372.84057517 210.47561947 378.22209099 213.5625 383.625 C220.10279212 395.08329948 220.10279212 395.08329948 223 401 C223.556875 401.886875 224.11375 402.77375 224.6875 403.6875 C226 406 226 406 226 409 C226.66 409 227.32 409 228 409 C228.42410156 409.87140625 228.84820313 410.7428125 229.28515625 411.640625 C232.8126454 418.82234552 236.51672403 425.7557342 240.71484375 432.57421875 C242 435 242 435 242 438 C242.66 438 243.32 438 244 438 C247 443.625 247 443.625 247 447 C247.66 447 248.32 447 249 447 C249.391875 447.804375 249.78375 448.60875 250.1875 449.4375 C252.89617874 454.76145477 255.68487418 460.02731126 259 465 C259 465.99 259 466.98 259 468 C259.66 468 260.32 468 261 468 C261.53109375 469.07121094 262.0621875 470.14242188 262.609375 471.24609375 C263.32219556 472.64359721 264.03577698 474.04071277 264.75 475.4375 C265.27207031 476.49807617 265.27207031 476.49807617 265.8046875 477.58007812 C266.76747797 479.44325599 267.8776261 481.22836966 269 483 C270.32 483.33 271.64 483.66 273 484 C273 490.6 273 497.2 273 504 C256.41279183 504.02328277 239.82559054 504.04106247 223.23836994 504.05181217 C215.53431449 504.05693909 207.83026946 504.0639119 200.1262207 504.07543945 C193.40086124 504.08549768 186.67550934 504.09187953 179.95014256 504.09408849 C176.39868589 504.09537696 172.84725082 504.09834156 169.29580116 504.10573006 C165.30306724 504.11396698 161.31036937 504.11398411 157.31762695 504.11352539 C156.17753174 504.11712067 155.03743652 504.12071594 153.86279297 504.12442017 C146.85040573 504.11583407 139.87221768 503.87431996 132.87086487 503.51622009 C122.49645804 502.98671955 112.13460893 502.76274368 101.74853516 502.62695312 C99.82531294 502.59917799 97.90209526 502.57108674 95.97888184 502.54270935 C91.88194918 502.48289439 87.78499451 502.42520383 83.68800735 502.36924744 C77.17519916 502.28022525 70.66247349 502.18591722 64.14974976 502.09094238 C51.47929827 501.90685656 38.80877828 501.72780351 26.13824463 501.54947662 C10.04853775 501.32288712 -6.04114119 501.09448142 -22.13074267 500.86051702 C-27.52882342 500.78216915 -32.92691532 500.70499816 -38.32505417 500.63075256 C-59.70645822 500.33655486 -81.07605347 499.99869012 -102.4460907 499.22094727 C-109.37810486 498.97295712 -116.310763 498.83529007 -123.24609375 498.71875 C-123.99294402 498.70617912 -124.73979429 498.69360825 -125.50927639 498.68065643 C-127.216599 498.65364401 -128.92397268 498.62991536 -130.63134766 498.60644531 C-131.89746887 498.58892212 -133.16359009 498.57139893 -134.46807861 498.55334473 C-135.77798767 498.53574097 -137.08789673 498.51813721 -138.4375 498.5 C-139.81695558 498.48124308 -141.19641115 498.46248492 -142.5758667 498.44372559 C-148.67035358 498.36142513 -154.76486489 498.28132484 -160.85943604 498.20550537 C-170.65953646 498.0834887 -180.45943705 497.95203246 -190.25927734 497.81054688 C-200.97192439 497.65618062 -211.68467218 497.51423365 -222.39764309 497.38423157 C-228.35864333 497.31157486 -234.31947653 497.23375468 -240.28024292 497.14379883 C-245.94031517 497.0586831 -251.60038836 496.98796862 -257.26078224 496.92810822 C-259.37342949 496.9032415 -261.48602179 496.87311687 -263.59851646 496.83757782 C-266.5007739 496.78958192 -269.40264082 496.76010094 -272.30517578 496.73535156 C-273.16377921 496.71678352 -274.02238264 496.69821548 -274.90700436 496.67908478 C-277.50099369 496.63356381 -277.50099369 496.63356381 -281 497 C-281.66 497.99 -282.32 498.98 -283 500 C-287.08641257 499.26733512 -290.59474154 497.31342025 -294.25 495.4375 C-295.22453125 494.9434668 -295.22453125 494.9434668 -296.21875 494.43945312 C-297.81434294 493.62992435 -299.40742483 492.81544958 -301 492 C-301.43017421 486.8379095 -300.33807571 484.27894492 -297.5 480 C-296.76860173 478.87253828 -296.03951591 477.74357378 -295.3125 476.61328125 C-294.93351562 476.02885254 -294.55453125 475.44442383 -294.1640625 474.84228516 C-292.16939647 471.68545843 -290.33687059 468.43786085 -288.5 465.1875 C-287.9750293 464.26227539 -287.9750293 464.26227539 -287.43945312 463.31835938 C-286.62433806 461.8800175 -285.81185737 460.44018316 -285 459 C-284.34 459 -283.68 459 -283 459 C-282.87625 458.21302734 -282.87625 458.21302734 -282.75 457.41015625 C-281.71471931 454.08323863 -279.87053087 451.34467123 -278 448.4375 C-275.09690948 443.92720352 -275.09690948 443.92720352 -273 439 C-272.34 439 -271.68 439 -271 439 C-270.91105469 438.46503906 -270.82210937 437.93007813 -270.73046875 437.37890625 C-269.7528312 434.19504919 -268.10283243 431.74405922 -266.3125 428.9375 C-263.11665436 423.86788036 -260.14035134 418.73086098 -257.32421875 413.4375 C-254.83315623 408.85218138 -252.04948545 404.4413557 -249.3125 400 C-248.96074707 399.42805908 -248.60899414 398.85611816 -248.24658203 398.2668457 C-246.56964322 395.54116536 -244.88720694 392.81948239 -243.19140625 390.10546875 C-232.03244911 372.36891505 -232.03244911 372.36891505 -222 354 C-221.34 354 -220.68 354 -220 354 C-219.74347656 353.12730469 -219.48695313 352.25460937 -219.22265625 351.35546875 C-217.98011971 347.94544035 -216.44862928 345.32289602 -214.4375 342.3125 C-212.5543264 339.48186691 -211.07671842 337.23015525 -210 334 C-209.34 334 -208.68 334 -208 334 C-207.74347656 333.12730469 -207.48695313 332.25460937 -207.22265625 331.35546875 C-205.98011971 327.94544035 -204.44862928 325.32289602 -202.4375 322.3125 C-200.5543264 319.48186691 -199.07671842 317.23015525 -198 314 C-197.34 314 -196.68 314 -196 314 C-195.74734375 313.13890625 -195.4946875 312.2778125 -195.234375 311.390625 C-193.93345193 307.8172034 -192.28752346 304.95633537 -190.25 301.75 C-189.52301655 300.59401463 -188.79645707 299.43776252 -188.0703125 298.28125 C-187.38710937 297.1984375 -186.70390625 296.115625 -186 295 C-183.17965619 290.38223501 -180.42366723 285.72662744 -177.6875 281.05859375 C-173.84562842 274.5043757 -170.00276844 267.95790779 -166 261.5 C-159.3931555 250.83255939 -153.00881048 240.01615254 -147 229 C-146.34 229 -145.68 229 -145 229 C-144.77828125 228.19046875 -144.5565625 227.3809375 -144.328125 226.546875 C-142.65133668 222.06886384 -140.29092819 218.28395071 -137.75 214.25 C-136.75097702 212.64212901 -135.75227641 211.03405768 -134.75390625 209.42578125 C-134.2758252 208.65959473 -133.79774414 207.8934082 -133.30517578 207.10400391 C-131.73212549 204.56817386 -130.20489507 202.00695565 -128.6875 199.4375 C-126.88322971 196.40798026 -124.98756055 193.47486379 -123 190.5625 C-120.19393075 186.41916337 -117.85312678 182.09961271 -115.5 177.6875 C-114.10768026 175.19292713 -112.61469996 172.85477077 -111 170.5 C-107.60661149 165.53838756 -104.82703337 160.29784538 -102 155 C-101.04543306 153.26875129 -100.08740364 151.53940456 -99.125 149.8125 C-98.71507812 149.07644531 -98.30515625 148.34039062 -97.8828125 147.58203125 C-97.44582031 146.79892578 -97.44582031 146.79892578 -97 146 C-96.34 146 -95.68 146 -95 146 C-94.6596875 144.7934375 -94.6596875 144.7934375 -94.3125 143.5625 C-92.66368412 139.08714261 -90.39455588 135.11278682 -88 131 C-87.34 131 -86.68 131 -86 131 C-85.75507813 130.16210938 -85.51015625 129.32421875 -85.2578125 128.4609375 C-83.838539 124.55573153 -81.98142234 121.19028729 -79.875 117.625 C-79.50246094 116.98433594 -79.12992188 116.34367187 -78.74609375 115.68359375 C-77.83565998 114.11951523 -76.91851809 112.55934466 -76 111 C-75.34 111 -74.68 111 -74 111 C-73.73832031 110.11957031 -73.47664062 109.23914063 -73.20703125 108.33203125 C-72.02032124 105.05609715 -70.61676834 102.57498587 -68.6875 99.6875 C-66.52633718 96.38350005 -64.44230072 93.09687684 -62.5625 89.625 C-58.21871921 81.64953364 -53.299302 74.00113141 -48.375 66.375 C-44.97358164 61.05641857 -41.97453734 55.56499981 -39 50 C-38.04523509 48.26886046 -37.0871673 46.53953625 -36.125 44.8125 C-35.51011719 43.70841797 -35.51011719 43.70841797 -34.8828125 42.58203125 C-34.44582031 41.79892578 -34.44582031 41.79892578 -34 41 C-33.34 41 -32.68 41 -32 41 C-31.67708984 39.81470703 -31.67708984 39.81470703 -31.34765625 38.60546875 C-29.56537373 33.83721724 -27.04287045 29.67257577 -24.4375 25.3125 C-23.43373572 23.62255378 -22.43232628 21.93120603 -21.43359375 20.23828125 C-20.76928345 19.1251355 -20.76928345 19.1251355 -20.09155273 17.98950195 C-18.02500234 14.22293537 -18.00620214 12.08561342 -19 8 C-16.77812073 6.65304207 -14.54882537 5.32258204 -12.3125 4 C-11.68666016 3.6184375 -11.06082031 3.236875 -10.41601562 2.84375 C-6.8043482 0.7259136 -4.21568411 -0.51587721 0 0 Z M-15 18 C-18.73848354 23.18266485 -22.28324191 28.19601681 -25 34 C-25.84846649 35.50323162 -26.70313969 37.00296942 -27.5625 38.5 C-29.48126086 41.91562551 -30.9315466 45.21184702 -32 49 C-32.66 49 -33.32 49 -34 49 C-34.37769531 49.79019531 -34.75539063 50.58039063 -35.14453125 51.39453125 C-39.18235383 59.66875786 -43.59439526 67.62982721 -48.35473633 75.51293945 C-49.04152466 76.66862427 -49.04152466 76.66862427 -49.7421875 77.84765625 C-50.1532373 78.52836182 -50.56428711 79.20906738 -50.98779297 79.91040039 C-52.1240503 82.25608936 -52.58914345 84.43508127 -53 87 C-53.66 87 -54.32 87 -55 87 C-56.4606285 89.64738916 -57 90.89448334 -57 94 C-57.66 94 -58.32 94 -59 94 C-59.42410156 94.87140625 -59.84820312 95.7428125 -60.28515625 96.640625 C-64.20841547 104.63282577 -68.44756801 112.34412863 -73 120 C-73.9880026 121.68234196 -74.96805998 123.36939349 -75.9375 125.0625 C-76.33839844 125.75472656 -76.73929688 126.44695312 -77.15234375 127.16015625 C-78.20922333 129.1165005 -78.20922333 129.1165005 -78 132 C-78.66 132 -79.32 132 -80 132 C-80.53496094 133.08925781 -81.06992188 134.17851562 -81.62109375 135.30078125 C-84.30490948 140.66723094 -87.18196466 145.9247796 -90.0625 151.1875 C-90.59166016 152.15880859 -91.12082031 153.13011719 -91.66601562 154.13085938 C-95.75242344 161.61149802 -95.75242344 161.61149802 -97.67358398 164.6262207 C-99.24389559 166.9832753 -99.24389559 166.9832753 -99 170 C-99.66 170 -100.32 170 -101 170 C-101.49886719 170.96035156 -101.99773437 171.92070312 -102.51171875 172.91015625 C-107.5949998 182.63238405 -112.90729074 192.20762078 -118.32739258 201.74584961 C-121.77201171 207.81237863 -125.16032136 213.8976224 -128.43359375 220.05859375 C-129.59909664 222.24718147 -130.77817689 224.42498423 -131.97265625 226.59765625 C-132.30088379 227.19755371 -132.62911133 227.79745117 -132.96728516 228.41552734 C-133.88094537 230.08421024 -134.79779019 231.75114832 -135.71484375 233.41796875 C-137.1485292 235.8177156 -137.1485292 235.8177156 -137 238 C-137.66 238 -138.32 238 -139 238 C-139.43570313 238.89460937 -139.87140625 239.78921875 -140.3203125 240.7109375 C-143.52283714 247.23181701 -146.84441059 253.56357457 -150.65234375 259.7578125 C-153.77636799 264.95546442 -156.25386513 270.17955044 -158 276 C-158.66 276 -159.32 276 -160 276 C-160.37769531 276.79019531 -160.75539063 277.58039063 -161.14453125 278.39453125 C-165.18235383 286.66875786 -169.59439526 294.62982721 -174.35473633 302.51293945 C-174.81259521 303.283396 -175.2704541 304.05385254 -175.7421875 304.84765625 C-176.1532373 305.52836182 -176.56428711 306.20906738 -176.98779297 306.91040039 C-178.1240503 309.25608936 -178.58914345 311.43508127 -179 314 C-179.66 314 -180.32 314 -181 314 C-182.4606285 316.64738916 -183 317.89448334 -183 321 C-183.66 321 -184.32 321 -185 321 C-185.42410156 321.87140625 -185.84820312 322.7428125 -186.28515625 323.640625 C-189.8126454 330.82234552 -193.51672403 337.7557342 -197.71484375 344.57421875 C-199.23407461 346.98429386 -199.23407461 346.98429386 -199 350 C-199.66 350 -200.32 350 -201 350 C-201.49886719 350.96035156 -201.99773437 351.92070312 -202.51171875 352.91015625 C-207.59850176 362.63908185 -212.91514938 372.22049375 -218.33837891 381.765625 C-221.67964711 387.65080218 -224.95858383 393.55664229 -228.14453125 399.52734375 C-234.56192339 411.53799977 -241.06528167 423.49275333 -247.9375 435.25 C-254.68726471 445.10069849 -254.68726471 445.10069849 -258 456 C-258.66 456 -259.32 456 -260 456 C-260.53496094 457.08925781 -261.06992187 458.17851562 -261.62109375 459.30078125 C-264.30490948 464.66723094 -267.18196466 469.9247796 -270.0625 475.1875 C-270.85624023 476.64446289 -270.85624023 476.64446289 -271.66601562 478.13085938 C-275.71115704 485.53595514 -275.71115704 485.53595514 -277.67358398 488.6887207 C-279.16591543 490.84496696 -279.16591543 490.84496696 -279 493 C-274.60418283 493.03041279 -270.20839378 493.04724405 -265.8125 493.0625 C-264.62462891 493.07087891 -263.43675781 493.07925781 -262.21289062 493.08789062 C-254.88885222 493.10662218 -247.58813439 492.96381709 -240.2696867 492.6723938 C-218.89162774 491.83409558 -197.50321691 491.60950796 -176.1121347 491.32575035 C-170.46040788 491.24997715 -164.80873615 491.17029965 -159.15705872 491.09094238 C-144.83391999 490.89045837 -130.5107137 490.69504163 -116.1875 490.5 C-100.72171431 490.28928828 -85.25594598 490.07749714 -69.79024678 489.86051702 C-64.19942665 489.7822149 -58.60859606 489.7050507 -53.01772118 489.63075256 C-32.69550676 489.36051119 -12.38337817 489.07049432 7.92908764 488.37004089 C25.91831626 487.77020043 43.91689934 487.57971888 61.91364336 487.32575035 C67.26117567 487.2496111 72.60865811 487.17011364 77.95614624 487.09094238 C89.22567417 486.92457105 100.4952462 486.76136748 111.76483154 486.59893799 C128.65520093 486.35548234 145.54553411 486.10956977 162.43582189 485.86051702 C168.71689859 485.7680192 174.99799645 485.67720632 181.27911747 485.58777189 C209.189323 485.18883984 237.0944029 484.64493591 265 484 C264.45512939 483.04738281 263.91025879 482.09476563 263.34887695 481.11328125 C262.62450263 479.84635936 261.90013791 478.57943199 261.17578125 477.3125 C260.81778442 476.68666016 260.4597876 476.06082031 260.09094238 475.41601562 C252.3453499 461.86677084 252.3453499 461.86677084 249 455 C248.34 455 247.68 455 247 455 C246.73703125 454.11699219 246.4740625 453.23398437 246.203125 452.32421875 C245.03113321 449.08602065 243.66296862 446.66041049 241.75 443.8125 C239.29965014 440.07356036 237.03574495 436.32235791 234.9375 432.375 C233.1303988 428.99027076 231.24080122 425.78296049 229.0625 422.625 C225.21745006 417.02570977 222.14072266 411.01197504 219 405 C218.34 405 217.68 405 217 405 C216.9175 404.47535156 216.835 403.95070313 216.75 403.41015625 C215.71471931 400.08323863 213.87053087 397.34467123 212 394.4375 C208.12454324 388.37362972 208.12454324 388.37362972 207 385 C206.34 385 205.68 385 205 385 C204.77828125 384.18917969 204.5565625 383.37835938 204.328125 382.54296875 C202.65523869 378.08029852 200.2912865 374.32692859 197.75 370.3125 C193.59879782 363.64910361 189.63448826 356.96226866 186 350 C185.34 350 184.68 350 184 350 C183.74605469 349.13761719 183.49210937 348.27523438 183.23046875 347.38671875 C181.94245198 343.84160592 180.32621028 340.99724808 178.3125 337.8125 C177.95945801 337.24934082 177.60641602 336.68618164 177.24267578 336.10595703 C175.55721596 333.42416627 173.84515612 330.7598142 172.12890625 328.09765625 C168.659297 322.71164813 165.48251495 317.26831712 162.46484375 311.6171875 C160.65956162 308.3917501 158.60751267 305.38642349 156.51953125 302.33984375 C153.3351324 297.43636069 150.61373707 292.22747413 148 287 C147.34 287 146.68 287 146 287 C145.855625 286.401875 145.71125 285.80375 145.5625 285.1875 C145.1127561 283.43849596 144.57107659 281.71322977 144 280 C143.34 280 142.68 280 142 280 C141.7525 279.154375 141.505 278.30875 141.25 277.4375 C139.86026373 273.61572526 138.08879162 270.48131937 136 267 C135.34 267 134.68 267 134 267 C133.78859375 266.21109375 133.5771875 265.4221875 133.359375 264.609375 C131.54325898 259.78727384 128.94486361 255.62751016 126.25 251.25 C125.21354167 249.546875 124.17708333 247.84375 123.140625 246.140625 C122.62322754 245.29532227 122.10583008 244.45001953 121.57275391 243.57910156 C119.98599362 240.97703144 118.41648977 238.36525028 116.8515625 235.75 C114.642958 232.06177484 112.39822296 228.39886432 110.125 224.75 C106.91253423 219.55120043 103.8646609 214.27996602 100.86425781 208.95678711 C98.567533 204.91257893 96.07841202 201.06651424 93.44921875 197.234375 C90.29134571 192.36563273 87.59422685 187.18845369 85 182 C84.34 182 83.68 182 83 182 C82.9175 181.47535156 82.835 180.95070312 82.75 180.41015625 C81.71471931 177.08323863 79.87053087 174.34467123 78 171.4375 C74.12454324 165.37362972 74.12454324 165.37362972 73 162 C72.34 162 71.68 162 71 162 C70.67902344 160.81083984 70.67902344 160.81083984 70.3515625 159.59765625 C68.56627514 154.84548961 66.02740348 150.75163059 63.375 146.4375 C62.56748291 145.108396 62.56748291 145.108396 61.74365234 143.75244141 C60.16891452 141.16426311 58.58607204 138.58124436 57 136 C56.3822168 134.99235596 56.3822168 134.99235596 55.75195312 133.96435547 C54.08036853 131.23885001 52.40353693 128.51665729 50.72265625 125.796875 C48.65926472 122.44678808 46.63116348 119.0768599 44.61328125 115.69921875 C43.04224681 113.07068413 41.46340675 110.44691821 39.88427734 107.82324219 C35.77022342 100.98360541 31.71225759 94.11296855 27.67871094 87.22558594 C24.40010898 81.64296253 21.0243336 76.12705848 17.59375 70.63671875 C16.27779715 68.45959088 15.09062051 66.29575618 14 64 C13.34 64 12.68 64 12 64 C11.855625 63.401875 11.71125 62.80375 11.5625 62.1875 C11.1127561 60.43849596 10.57107659 58.71322977 10 57 C9.34 57 8.68 57 8 57 C7.76667969 56.16726562 7.53335937 55.33453125 7.29296875 54.4765625 C5.76863183 50.37789222 3.68583492 47.02604651 1.3125 43.375 C0.40859786 41.96063015 -0.4937338 40.54525546 -1.39453125 39.12890625 C-1.83748535 38.43297363 -2.28043945 37.73704102 -2.73681641 37.02001953 C-5.08531978 33.26441132 -7.25697963 29.4103402 -9.4296875 25.55078125 C-11.09543324 22.84498034 -12.96883065 20.4400411 -15 18 Z " fill="#000000" transform="translate(319,51)"/>
<path d="M0 0 C0.97453125 0.60457031 1.9490625 1.20914062 2.953125 1.83203125 C8.62865922 5.47952772 13.9486653 9.43386833 19.125 13.75 C19.68179443 14.20987305 20.23858887 14.66974609 20.81225586 15.14355469 C23.66102539 17.57561473 25.41146376 19.64138051 27 23 C27.99 23.33 28.98 23.66 30 24 C32.75 26.3125 32.75 26.3125 35 29 C34.83672571 31.78692324 34.1235569 32.86639562 32.22265625 34.921875 C31.50980469 35.52515625 30.79695312 36.1284375 30.0625 36.75 C28.99708984 37.67039062 28.99708984 37.67039062 27.91015625 38.609375 C26 40 26 40 24 40 C24 40.66 24 41.32 24 42 C21.82415022 43.63950586 19.65664862 45.14495911 17.375 46.625 C16.69711426 47.0686792 16.01922852 47.5123584 15.32080078 47.96948242 C4.64024123 54.89261864 -5.93572217 60.75996304 -18 65 C-18.94746094 65.35835938 -19.89492188 65.71671875 -20.87109375 66.0859375 C-49.51765404 76.89442691 -81.48393681 77.15532206 -109.6875 64.625 C-111.46374 63.76102828 -113.23432669 62.88536628 -115 62 C-116.08539063 61.48695313 -117.17078125 60.97390625 -118.2890625 60.4453125 C-134.67757343 52.55993141 -152.27508885 42.13521676 -163.60546875 27.62109375 C-164.98945029 25.86763278 -164.98945029 25.86763278 -167.17578125 24.53515625 C-167.77777344 24.02855469 -168.37976563 23.52195312 -169 23 C-169 21.68 -169 20.36 -169 19 C-167.07298791 17.19682411 -165.25508088 15.71210561 -163.125 14.1875 C-162.52856689 13.74736572 -161.93213379 13.30723145 -161.31762695 12.85375977 C-160.10926937 11.96607609 -158.89647325 11.08440101 -157.67919922 10.20898438 C-156.26571066 9.19130549 -154.86733182 8.15268717 -153.47265625 7.109375 C-136.74734298 -5.12726445 -117.15525975 -14.2427152 -97 -19 C-95.79730469 -19.29777344 -94.59460938 -19.59554688 -93.35546875 -19.90234375 C-60.31271403 -27.16706287 -28.12752016 -17.52268485 0 0 Z M-113 -1 C-114.13695312 -0.46246094 -115.27390625 0.07507813 -116.4453125 0.62890625 C-123.77551505 4.13841595 -130.53470314 8.04398601 -137 13 C-138.22976562 13.94166016 -138.22976562 13.94166016 -139.484375 14.90234375 C-145.56446707 19.67011781 -151.31300325 24.77280299 -157 30 C-156.29359375 30.56332031 -155.5871875 31.12664062 -154.859375 31.70703125 C-152.98351587 33.21130627 -151.11845286 34.72916542 -149.265625 36.26171875 C-123.93156098 56.64054486 -91.62034709 67.03937744 -59.1875 64.75 C-48.17977548 63.42483252 -37.82737152 60.14109857 -27.5625 56.0625 C-26.74668457 55.73886475 -25.93086914 55.41522949 -25.09033203 55.08178711 C-7.24762241 47.76202704 7.91511576 35.96750302 22 23 C20.47813148 18.79078137 17.41758566 16.76789171 13.875 14.3125 C13.25753906 13.87969727 12.64007813 13.44689453 12.00390625 13.00097656 C-10.63905328 -2.57456624 -35.07356363 -12.17294337 -62.6875 -12.1875 C-63.89083984 -12.19974609 -65.09417969 -12.21199219 -66.33398438 -12.22460938 C-83.08281666 -12.25175497 -97.99148224 -8.34156492 -113 -1 Z " fill="#000000" transform="translate(375,358)"/>
<path d="M0 0 C3.61369049 1.31406927 5.09889269 3.42021012 7.41796875 6.40625 C8.67936016 8.13113625 8.67936016 8.13113625 10.75 9 C10.85694603 21.28069497 10.82546108 33.54036839 10.3125 45.8125 C10.27326416 46.77027344 10.23402832 47.72804687 10.19360352 48.71484375 C9.99608145 53.07018633 9.72479695 57.39643099 9.27514648 61.7331543 C8.61378623 68.90064837 8.37437556 76.08145131 8.11924744 83.27209473 C8.02930105 85.80488025 7.93557303 88.33750259 7.84094238 90.87011719 C7.64069635 96.24662723 7.4449981 101.6232974 7.25 107 C7.02375521 113.23827078 6.79556711 119.47645817 6.56248474 125.71447754 C6.47094016 128.19075627 6.38290844 130.66714308 6.29504395 133.14355469 C6.03430252 140.26643791 5.68933014 147.35113304 4.9786377 154.44610596 C4.55191425 159.21262737 4.41650048 163.9919883 4.25 168.7734375 C4.20939453 169.85903961 4.16878906 170.94464172 4.12695312 172.06314087 C3.9985281 175.50033162 3.87383393 178.93764099 3.75 182.375 C2.7283095 210.64709172 2.7283095 210.64709172 1.75 221 C-0.56 221 -2.87 221 -5.25 221 C-6.27639145 211.50338789 -6.55663163 202.01245157 -6.80224609 192.47021484 C-6.85493069 190.4696504 -6.9118187 188.4691981 -6.96875 186.46875 C-6.99904297 185.29763672 -7.02933594 184.12652344 -7.06054688 182.91992188 C-7.19983935 180.03786005 -7.42374507 177.23703158 -7.72265625 174.37280273 C-8.49847098 166.13911361 -8.64206943 157.87310905 -8.88075256 149.61013985 C-8.9703806 146.5100055 -9.06420735 143.41002204 -9.15905762 140.31004333 C-9.35972073 133.72763696 -9.55519998 127.14508214 -9.75 120.5625 C-9.97598087 112.93073164 -10.20415248 105.2990403 -10.43751526 97.66749382 C-10.52925867 94.63228671 -10.61719962 91.59698537 -10.70495605 88.56166077 C-10.95655288 80.14488372 -11.24475599 71.76791325 -12.03256226 63.38050842 C-12.33366905 60.08399125 -12.46156158 56.80480725 -12.56640625 53.49609375 C-12.60910645 52.18713135 -12.65180664 50.87816895 -12.69580078 49.52954102 C-12.83978349 44.6339077 -12.96070833 39.73762773 -13.0769043 34.84126282 C-13.17703496 30.88832615 -13.36084332 26.95265678 -13.62890625 23.0078125 C-14.27649961 11.64529675 -14.27649961 11.64529675 -11.3125 6.89453125 C-4.64244186 0 -4.64244186 0 0 0 Z " fill="#000000" transform="translate(310.25,108)"/>
<path d="M0 0 C2.9375 2.0625 2.9375 2.0625 3.62109375 4.19140625 C3.72550781 4.80886719 3.82992187 5.42632812 3.9375 6.0625 C2.75220703 6.71992188 2.75220703 6.71992188 1.54296875 7.390625 C-7.32625953 12.37766536 -15.93378325 17.71107586 -24.515625 23.17578125 C-28.27964093 25.57241297 -32.06723763 27.92355007 -35.875 30.25 C-40.30917974 32.96445984 -44.69672011 35.74018974 -49.0625 38.5625 C-54.59764055 42.1400163 -60.17931563 45.63175045 -65.8046875 49.06640625 C-68.11007382 50.47893912 -70.40611555 51.90163353 -72.6953125 53.33984375 C-73.29013428 53.71165771 -73.88495605 54.08347168 -74.49780273 54.46655273 C-76.16029509 55.50639225 -77.82045026 56.5499657 -79.48046875 57.59375 C-82.0625 59.0625 -82.0625 59.0625 -84.0625 59.0625 C-84.0625 59.7225 -84.0625 60.3825 -84.0625 61.0625 C-86.125 62.4375 -86.125 62.4375 -89.0625 64.0625 C-94.16003398 66.9513032 -99.16382217 69.94532587 -104.125 73.0625 C-104.80989502 73.49224121 -105.49479004 73.92198242 -106.20043945 74.36474609 C-110.93602679 77.34211286 -115.65315225 80.34802114 -120.3671875 83.359375 C-123.35337511 85.24629935 -126.36213757 87.09348299 -129.375 88.9375 C-134.07811051 91.82095466 -138.73802863 94.76153603 -143.375 97.75 C-144.26227783 98.31702637 -144.26227783 98.31702637 -145.16748047 98.89550781 C-147.63899134 100.47811139 -150.08372244 102.07757548 -152.4765625 103.77734375 C-155.84730317 106.12645067 -157.34901048 107.07524088 -161.5625 107 C-163.295 106.5359375 -163.295 106.5359375 -165.0625 106.0625 C-165.78179687 105.91039062 -166.50109375 105.75828125 -167.2421875 105.6015625 C-169.20329833 105.17584093 -171.1367298 104.62694989 -173.0625 104.0625 C-173.3925 103.4025 -173.7225 102.7425 -174.0625 102.0625 C-174.7225 102.0625 -175.3825 102.0625 -176.0625 102.0625 C-175.60798816 100.33232492 -175.14871143 98.60340123 -174.6875 96.875 C-174.43226563 95.91207031 -174.17703125 94.94914063 -173.9140625 93.95703125 C-171.73620042 86.55429823 -171.73620042 86.55429823 -168.92675781 84.50341797 C-168.04858398 84.06658691 -167.17041016 83.62975586 -166.265625 83.1796875 C-164.7815918 82.42316895 -164.7815918 82.42316895 -163.26757812 81.65136719 C-162.20990234 81.12704102 -161.15222656 80.60271484 -160.0625 80.0625 C-157.91006207 78.94278413 -155.75905069 77.82032231 -153.609375 76.6953125 C-151.34425274 75.52506805 -149.07861437 74.35582213 -146.8125 73.1875 C-139.39362712 69.35537337 -131.97928769 65.51761368 -124.625 61.5625 C-119.610331 58.87059388 -114.55478475 56.29181759 -109.44921875 53.77734375 C-106.70147555 52.38604125 -103.98332426 50.95940443 -101.26953125 49.50390625 C-99.99770996 48.82400635 -99.99770996 48.82400635 -98.70019531 48.13037109 C-97.0130136 47.22599819 -95.32864529 46.31635237 -93.64746094 45.40087891 C-92.86790039 44.98370605 -92.08833984 44.5665332 -91.28515625 44.13671875 C-90.59172119 43.76119873 -89.89828613 43.38567871 -89.18383789 42.9987793 C-86.82950575 41.95966504 -84.59495799 41.48194959 -82.0625 41.0625 C-82.0625 40.4025 -82.0625 39.7425 -82.0625 39.0625 C-81.0209375 38.58941406 -79.979375 38.11632812 -78.90625 37.62890625 C-70.73614371 33.87509962 -62.80396796 29.89898091 -55.0090332 25.41796875 C-49.85657982 22.46974313 -44.61185273 19.77896634 -39.28637695 17.15893555 C-33.87105903 14.48794245 -28.52534463 11.69726061 -23.1875 8.875 C-22.37788818 8.45138184 -21.56827637 8.02776367 -20.73413086 7.59130859 C-17.41255267 5.85154851 -14.12381118 4.09820209 -10.8828125 2.2109375 C-4.27799927 -1.54316607 -4.27799927 -1.54316607 0 0 Z " fill="#000000" transform="translate(243.0625,418.9375)"/>
<path d="M0 0 C3.86469543 1.84573553 7.49410149 4.03405026 11.15625 6.25 C14.87432755 8.4084668 18.66715731 10.31965639 22.52734375 12.20703125 C27.3037363 14.54945728 31.95714522 16.97484735 36.52734375 19.70703125 C41.61484467 22.74035952 46.81610048 25.40603508 52.12426758 28.0222168 C58.99143186 31.41353823 65.75851904 34.98379224 72.52734375 38.56640625 C75.95788682 40.38209716 79.39573822 42.1828259 82.83984375 43.97265625 C90.90679958 48.16805944 98.94244908 52.38649227 106.83984375 56.89453125 C112.571484 60.16462517 118.38335284 63.19532697 124.30224609 66.11132812 C129.73312481 68.79160543 135.106457 71.57225503 140.46484375 74.39453125 C141.23352783 74.79857178 142.00221191 75.2026123 142.79418945 75.61889648 C144.29052514 76.4090018 145.78297093 77.20652227 147.27124023 78.01171875 C148.83097952 78.83808857 150.41055069 79.62769719 152.00415039 80.38671875 C156.00291312 82.37344199 158.10223017 83.42497375 160.28125 87.43359375 C160.54808594 88.55507813 160.81492187 89.6765625 161.08984375 90.83203125 C161.37988281 91.95867187 161.66992188 93.0853125 161.96875 94.24609375 C162.52734375 97.20703125 162.52734375 97.20703125 162.52734375 100.20703125 C161.53734375 100.70203125 161.53734375 100.70203125 160.52734375 101.20703125 C159.9240625 101.5215625 159.32078125 101.83609375 158.69921875 102.16015625 C154.22783839 104.31542592 150.5607785 105.59239433 145.52734375 105.20703125 C140.43353478 103.13855453 135.97300704 99.76714135 131.51318359 96.60302734 C128.57893746 94.54032518 125.55531111 92.62808374 122.52734375 90.70703125 C121.38118183 89.96795725 120.23535171 89.22836844 119.08984375 88.48828125 C115.25814393 86.02504565 111.39418229 83.61459803 107.52734375 81.20703125 C101.22709319 77.28368995 94.97018242 73.29825491 88.734375 69.2734375 C85.96464869 67.48880264 83.18636206 65.71923257 80.40234375 63.95703125 C75.08465284 60.58021862 69.80647429 57.14364742 64.52734375 53.70703125 C56.3606788 48.39249063 48.18190818 43.10317851 39.91015625 37.953125 C32.1944221 33.14846588 24.52456903 28.2845303 16.90625 23.32666016 C11.30603085 19.68986959 5.6558873 16.13869928 -0.03320312 12.64257812 C-1.85768868 11.51405018 -3.6688114 10.36825027 -5.47265625 9.20703125 C-6.13749023 8.7800293 -6.80232422 8.35302734 -7.48730469 7.91308594 C-9.20607114 6.75833015 -10.84721962 5.48983085 -12.47265625 4.20703125 C-12.47265625 3.21703125 -12.47265625 2.22703125 -12.47265625 1.20703125 C-7.71146904 -2.08917528 -5.12411156 -2.00360435 0 0 Z " fill="#000000" transform="translate(385.47265625,422.79296875)"/>
<path d="M0 0 C0.66 0.33 1.32 0.66 2 1 C2 1.66 2 2.32 2 3 C2.87978516 3.38091797 2.87978516 3.38091797 3.77734375 3.76953125 C9.81410106 7.11149707 13.99996867 13.55545459 16 20 C17.73668031 29.61489371 17.02838957 37.52844199 12 46 C11.47599609 46.91458984 11.47599609 46.91458984 10.94140625 47.84765625 C7.64042121 53.04470882 3.27285818 55.95796643 -2 59 C-3.546875 59.928125 -3.546875 59.928125 -5.125 60.875 C-12.45037875 63.72660432 -22.15645213 63.05236549 -29.4375 60.4375 C-38.87813439 55.95985251 -45.46381043 48.22519257 -49.375 38.625 C-50.21959493 33.72634938 -50.1613495 28.95701529 -50 24 C-48.0625 24.3515625 -48.0625 24.3515625 -46 25 C-45.30341637 26.65438613 -44.63903117 28.32254318 -44 30 C-41.02689623 33.32987622 -37.5793362 33.66265159 -33.3203125 34 C-29.87154713 34 -27.16078881 33.35462378 -24 32 C-22.53195637 30.14853436 -22.53195637 30.14853436 -22 28 C-21.67 27.01 -21.34 26.02 -21 25 C-20.60558733 19.77403212 -21.09450873 16.40833158 -24 12 C-27.98140352 8.97839911 -30.87719498 8.6629453 -35.8125 8.8125 C-36.97394531 8.83957031 -38.13539063 8.86664063 -39.33203125 8.89453125 C-40.21246094 8.92933594 -41.09289062 8.96414063 -42 9 C-41.636622 6.32946011 -41.25408089 5.22739405 -39.21484375 3.40234375 C-26.50718832 -4.7715341 -14.08818827 -7.24784892 0 0 Z " fill="#000000" transform="translate(325,356)"/>
<path d="M0 0 C1.32 0 2.64 0 4 0 C4.12060791 1.07930786 4.12060791 1.07930786 4.24365234 2.18041992 C6.1020259 19.06634788 6.1020259 19.06634788 8.53515625 35.875 C9.25048957 40.68396347 9.735415 45.51574046 10.25024414 50.34960938 C10.83975196 55.79405693 11.62513877 61.18347472 12.5 66.58984375 C13.10819686 70.73793643 13.55829685 74.89392653 14 79.0625 C14.63313389 85.02780839 15.44965745 90.90432318 16.5 96.8125 C17.13536272 100.86293734 17.56927683 104.92346788 18 109 C18.52215815 113.92385529 19.0757404 118.8089436 19.9375 123.6875 C22.46525954 138.08388053 23.99237935 152.67499486 25.6875 167.1875 C25.81890381 168.30398926 25.95030762 169.42047852 26.08569336 170.57080078 C26.26563843 172.13483643 26.26563843 172.13483643 26.44921875 173.73046875 C26.55580811 174.65239014 26.66239746 175.57431152 26.7722168 176.52416992 C27 179 27 179 27 183 C24.69 183 22.38 183 20 183 C18.00961691 177.58072968 16.89050845 172.08025939 15.75 166.4375 C15.53819092 165.40625 15.32638184 164.375 15.1081543 163.3125 C14.64858371 161.07435966 14.19055659 158.83590197 13.73388672 156.59716797 C12.69634395 151.5116207 11.65198318 146.42749966 10.60449219 141.34399414 C10.08636768 138.82923756 9.57001955 136.31411417 9.05566406 133.79858398 C7.58241277 126.62600306 7.58241277 126.62600306 5.88671875 119.50390625 C4.90525654 115.62561727 4.21867896 111.75152627 3.5625 107.80859375 C3.02540066 104.91919265 3.02540066 104.91919265 2.078125 101.83203125 C0.72249775 97.01366049 -0.25837762 92.1541625 -1.25 87.25 C-2.85889719 79.39393799 -4.52740639 71.55582058 -6.29296875 63.73339844 C-7.05823735 60.33144932 -7.80583576 56.92598173 -8.55078125 53.51953125 C-9.46780927 49.33331377 -10.44617201 45.1703814 -11.48046875 41.01171875 C-15.00076109 26.14940797 -15.00076109 26.14940797 -11.25 19.1875 C-9.453125 16.66796875 -9.453125 16.66796875 -8 15 C-7.34 15 -6.68 15 -6 15 C-5.88785156 14.28457031 -5.77570313 13.56914062 -5.66015625 12.83203125 C-4.95543995 9.80884002 -3.86712202 7.43677312 -2.4375 4.6875 C-1.98246094 3.80449219 -1.52742188 2.92148438 -1.05859375 2.01171875 C-0.70925781 1.34785156 -0.35992187 0.68398437 0 0 Z " fill="#000000" transform="translate(275,146)"/>
<path d="M0 0 C1.32 0 2.64 0 4 0 C4.84324672 1.578076 5.67423918 3.1627042 6.5 4.75 C6.9640625 5.63171875 7.428125 6.5134375 7.90625 7.421875 C9 10 9 10 9 14 C9.99 14 10.98 14 12 14 C12.27714844 14.56589844 12.55429687 15.13179687 12.83984375 15.71484375 C13.20207031 16.44832031 13.56429687 17.18179688 13.9375 17.9375 C14.47697266 19.03384766 14.47697266 19.03384766 15.02734375 20.15234375 C15.86371827 21.96249027 15.86371827 21.96249027 17 23 C16.98920589 31.77776792 14.70253174 40.28534589 12.625 48.75 C10.45990523 57.685603 8.41901505 66.61356222 6.66918945 75.63842773 C5.81059248 79.95146011 4.81729933 84.22694867 3.8125 88.5078125 C2.86924233 92.56200654 1.962836 96.62359804 1.0625 100.6875 C0.89371338 101.44836914 0.72492676 102.20923828 0.55102539 102.99316406 C-0.30314917 106.84644938 -1.15449076 110.70035055 -2.00390625 114.5546875 C-3.77705267 122.58640659 -5.59978219 130.60308662 -7.5 138.60571289 C-8.71195411 143.7275209 -9.86617225 148.86038708 -11 154 C-11.33191078 155.48830812 -11.66394206 156.97658937 -11.99609375 158.46484375 C-12.69449264 161.59910506 -13.36930826 164.737582 -14.03515625 167.87890625 C-14.37713125 169.44020783 -14.71956322 171.0014094 -15.0625 172.5625 C-15.21267578 173.29533203 -15.36285156 174.02816406 -15.51757812 174.78320312 C-15.97265625 176.81640625 -15.97265625 176.81640625 -17 180 C-20.13349732 181.04449911 -20.98968256 180.93423645 -24 180 C-24.2398939 173.85605073 -23.78434439 168.26886233 -22.5703125 162.25 C-21.85635157 158.18140071 -21.4257911 154.10723341 -21 150 C-20.39899904 144.25579513 -19.6197922 138.637698 -18.5 132.96875 C-17.83074261 128.99503422 -17.41968849 125.00671353 -17 121 C-16.48947058 116.12603947 -15.95053293 111.31207294 -15 106.5 C-14.09242698 101.8777095 -13.55200615 97.2440588 -13.0625 92.5625 C-12.41346298 86.4103424 -11.63821243 80.30024327 -10.6875 74.1875 C-9.2977657 65.24063066 -8.08183231 56.27460443 -6.88574219 47.30029297 C-4.78008705 31.50151793 -2.51753911 15.7394239 0 0 Z " fill="#000000" transform="translate(339,149)"/>
<path d="M0 0 C0 1.32 0 2.64 0 4 C-5.22727273 9 -5.22727273 9 -8 9 C-8.33 9.99 -8.66 10.98 -9 12 C-10.42578125 13.4375 -10.42578125 13.4375 -12.3125 15 C-15.93041687 18.0668005 -19.45262099 21.22115614 -22.9375 24.4375 C-23.96455558 25.38052228 -24.99189752 26.32323278 -26.01953125 27.265625 C-27.9143979 29.00345175 -29.80744357 30.74317527 -31.69921875 32.484375 C-32.49972656 33.21140625 -33.30023438 33.9384375 -34.125 34.6875 C-35.18074219 35.65236328 -35.18074219 35.65236328 -36.2578125 36.63671875 C-38 38 -38 38 -40 38 C-40.33 38.99 -40.66 39.98 -41 41 C-42.55859375 42.60546875 -42.55859375 42.60546875 -44.4375 44.1875 C-45.05496094 44.71730469 -45.67242187 45.24710937 -46.30859375 45.79296875 C-48 47 -48 47 -50 47 C-50 47.66 -50 48.32 -50 49 C-51.328125 50.33984375 -51.328125 50.33984375 -53.25 51.9375 C-55.91959324 54.19638659 -58.54264017 56.48405722 -61.09765625 58.87109375 C-61.62907227 59.36681885 -62.16048828 59.86254395 -62.70800781 60.37329102 C-63.76646673 61.36394543 -64.82188277 62.35786237 -65.87402344 63.35522461 C-68.25141045 65.56931242 -69.87673543 66.95891181 -73 68 C-73 68.66 -73 69.32 -73 70 C-74.43359375 71.4453125 -74.43359375 71.4453125 -76.4375 73.125 C-80.41621323 76.49378571 -84.2770561 79.9703982 -88.1171875 83.49609375 C-90 85 -90 85 -92 85 C-92 85.66 -92 86.32 -92 87 C-93.80680664 88.82122265 -95.76513546 90.40775214 -97.73828125 92.046875 C-100.00826294 93.93199523 -100.00826294 93.93199523 -101.85546875 96.015625 C-104.91390738 99.22405103 -106.83312547 100.84642779 -111.32421875 101.4375 C-114.579036 101.4375 -117.75933858 101.28918083 -121 101 C-121.66 101 -122.32 101 -123 101 C-128 101 -133 101 -138 101 C-138 99.68 -138 98.36 -138 97 C-136.99324219 96.45472656 -135.98648438 95.90945313 -134.94921875 95.34765625 C-130.93835082 93.05501062 -127.39955699 90.3360924 -123.8125 87.4375 C-122.04957794 86.02904783 -120.28591844 84.6215252 -118.52197266 83.21435547 C-117.24705635 82.19712196 -115.97303024 81.1787729 -114.69921875 80.16015625 C-113 79 -113 79 -111 79 C-111 78.34 -111 77.68 -111 77 C-109.586177 76.00906156 -108.16494212 75.02690232 -106.70703125 74.10205078 C-104.02005858 72.36735475 -101.52781024 70.39461838 -99 68.4375 C-98.4445752 68.00840332 -97.88915039 67.57930664 -97.31689453 67.13720703 C-93.74415663 64.37150638 -90.19408117 61.5778349 -86.64916992 58.77661133 C-81.03474635 54.34116262 -75.36619839 50.02587281 -69.546875 45.859375 C-66.20920992 43.42267473 -62.98796815 40.85101217 -59.77734375 38.25 C-58 37 -58 37 -56 37 C-56 36.34 -56 35.68 -56 35 C-54.30189246 33.62101957 -52.53964541 32.32040522 -50.75 31.0625 C-49.77546875 30.37285156 -48.8009375 29.68320312 -47.796875 28.97265625 C-46.87390625 28.32167969 -45.9509375 27.67070312 -45 27 C-44.26265625 26.42121094 -43.5253125 25.84242188 -42.765625 25.24609375 C-41 24 -41 24 -39 24 C-39 23.34 -39 22.68 -39 22 C-37.38600386 20.68269433 -35.70586161 19.44595733 -34 18.25 C-29.77690194 15.26386099 -25.63322878 12.21641169 -21.55859375 9.03125 C-20 8 -20 8 -18 8 C-18 7.34 -18 6.68 -18 6 C-12.16465095 0.6070852 -7.81404699 -2.17056861 0 0 Z " fill="#000000" transform="translate(259,427)"/>
<path d="M0 0 C1.625 1.6875 1.625 1.6875 1.625 5.6875 C1.05394531 5.83445312 0.48289063 5.98140625 -0.10546875 6.1328125 C-6.35469527 7.86153335 -11.98558839 10.30322261 -17.83203125 13.0859375 C-21.56808158 14.77478054 -25.33740116 16.22364632 -29.1875 17.625 C-34.67719998 19.62646685 -40.04174235 21.80024474 -45.375 24.1875 C-51.39582667 26.87925926 -57.47631674 29.28628503 -63.66503906 31.56298828 C-68.49486557 33.34308373 -73.24241594 35.26414014 -77.98046875 37.2734375 C-82.44460754 39.13306724 -86.9419453 40.90546344 -91.4375 42.6875 C-96.72289079 44.78571069 -101.97450943 46.89699005 -107.125 49.3125 C-112.10928114 51.64423592 -117.21439478 53.55172349 -122.37695312 55.44433594 C-127.64239783 57.38171727 -132.79320517 59.52687045 -137.921875 61.8046875 C-140.375 62.6875 -140.375 62.6875 -144.375 62.6875 C-144.045 61.3675 -143.715 60.0475 -143.375 58.6875 C-142.715 58.6875 -142.055 58.6875 -141.375 58.6875 C-141.106875 57.78 -140.83875 56.8725 -140.5625 55.9375 C-139.45731782 52.91279089 -138.3117553 51.18914226 -136.375 48.6875 C-135.70058869 47.0239521 -135.0349679 45.35683058 -134.375 43.6875 C-131.73955431 37.42831648 -131.73955431 37.42831648 -128.42016602 35.6262207 C-121.30181683 32.94087313 -114.09201856 30.64541082 -106.8125 28.4375 C-104.22850924 27.64666846 -101.64549004 26.85268683 -99.0625 26.05859375 C-98.41530502 25.86001266 -97.76811005 25.66143158 -97.1013031 25.45683289 C-90.82056241 23.52601423 -84.5655625 21.51826967 -78.3125 19.5 C-70.15777711 16.87339234 -61.98202159 14.34306483 -53.76831055 11.90771484 C-47.53045256 10.05177122 -41.32458378 8.10479312 -35.125 6.125 C-33.74598511 5.68692017 -33.74598511 5.68692017 -32.33911133 5.23999023 C-28.09561788 3.88925298 -23.8604732 2.52064909 -19.640625 1.09765625 C-18.55249512 0.73812866 -18.55249512 0.73812866 -17.44238281 0.37133789 C-15.52105881 -0.26418744 -13.60408112 -0.91281149 -11.6875 -1.5625 C-7.2242004 -2.5730584 -4.00236721 -2.21183451 0 0 Z " fill="#000000" transform="translate(231.375,411.3125)"/>
<path d="M0 0 C1.65 0 3.3 0 5 0 C5 0.66 5 1.32 5 2 C5.69867188 2.22429687 6.39734375 2.44859375 7.1171875 2.6796875 C10.64053971 4.29336372 13.26100475 6.57496754 16.125 9.125 C20.9388779 13.30740479 25.86125404 17.15084045 31.0625 20.84765625 C34.58206834 23.4264889 37.97897506 26.13664533 41.375 28.875 C46.06544855 32.65695157 50.77598822 36.40270124 55.5625 40.0625 C60.17456922 43.58971058 64.75362611 47.15434556 69.3125 50.75 C72.84777674 53.53709022 76.38444573 56.31724331 80 59 C84.23864382 62.14509179 88.37138473 65.42383219 92.515625 68.69140625 C97.0129872 72.23391448 101.54008334 75.73508762 106.08666992 79.21411133 C108.99263103 81.44200007 111.88069743 83.68987567 114.75 85.96484375 C115.37583984 86.46048828 116.00167969 86.95613281 116.64648438 87.46679688 C117.8477455 88.4199577 119.0470907 89.37554015 120.24414062 90.33398438 C122.7285473 92.30457722 125.13585639 94.07614531 127.90625 95.62890625 C128.5971875 96.08136719 129.288125 96.53382813 130 97 C130 97.99 130 98.98 130 100 C125.91142952 100.225006 121.82532066 100.38691544 117.73193359 100.49438477 C116.34457556 100.53923678 114.95763288 100.60035186 113.57177734 100.67895508 C102.08570204 101.31338451 102.08570204 101.31338451 96.90844727 98.05322266 C94.42842912 95.8153505 92.21124728 93.49965887 90 91 C88.91710804 90.05829579 87.81583976 89.13674189 86.6875 88.25 C84.5079268 86.42524104 82.52926711 84.53526363 80.53198242 82.52050781 C77.35383112 79.36616099 74.07593651 76.31556299 70.8125 73.25 C70.08869141 72.56550781 69.36488281 71.88101563 68.61914062 71.17578125 C67.92626953 70.52480469 67.23339844 69.87382812 66.51953125 69.203125 C65.89151611 68.61176758 65.26350098 68.02041016 64.61645508 67.41113281 C63.03911917 65.91484561 63.03911917 65.91484561 61 65 C61 64.34 61 63.68 61 63 C60.42507813 62.75378906 59.85015625 62.50757813 59.2578125 62.25390625 C56.64360173 60.80206947 54.93663792 59.09712451 52.875 56.9375 C50.22095 54.08428067 50.22095 54.08428067 47 52 C47 51.34 47 50.68 47 50 C46.443125 49.7525 45.88625 49.505 45.3125 49.25 C40.47677039 46.6360921 36.85390116 42.85390116 33 39 C30.61000468 36.90825031 28.20915726 34.83097757 25.79296875 32.76953125 C25.20128906 32.18558594 24.60960937 31.60164063 24 31 C24 30.34 24 29.68 24 29 C23.40703125 28.73574219 22.8140625 28.47148437 22.203125 28.19921875 C19.91970946 26.95629575 18.52573277 25.69598354 16.75 23.8125 C13.02141637 19.97237754 9.06223074 16.48077418 5 13 C4.34257812 12.42636719 3.68515625 11.85273438 3.0078125 11.26171875 C2.38648438 10.72160156 1.76515625 10.18148438 1.125 9.625 C0.57070313 9.14289063 0.01640625 8.66078125 -0.5546875 8.1640625 C-2.01360037 6.9045572 -2.01360037 6.9045572 -4 6 C-4 4.68 -4 3.36 -4 2 C-2.68 2 -1.36 2 0 2 C0 1.34 0 0.68 0 0 Z " fill="#000000" transform="translate(363,428)"/>
<path d="M0 0 C1.1446875 0.35964844 2.289375 0.71929687 3.46875 1.08984375 C6.69166887 2.12634072 9.90308543 3.19076784 13.109375 4.27734375 C15.23957155 4.97772655 17.37365649 5.65339131 19.515625 6.31640625 C20.55916138 6.63943726 20.55916138 6.63943726 21.6237793 6.96899414 C22.99959238 7.39347568 24.37602008 7.81597237 25.75317383 8.23608398 C29.02639656 9.2460073 32.25044079 10.31637278 35.44921875 11.54296875 C40.71081424 13.54830017 46.0728652 15.23160312 51.4375 16.9375 C52.5298999 17.28643311 53.6222998 17.63536621 54.74780273 17.99487305 C62.51902338 20.46586468 70.31222657 22.85379567 78.14160156 25.1340332 C82.42546592 26.39309837 86.5825449 27.81832647 90.74731445 29.42602539 C92.63273241 30.10526933 94.56975261 30.63553935 96.50390625 31.16015625 C104.19819414 33.27026857 109.15927448 35.23773745 113.328125 42.42578125 C113.77671875 43.31652344 114.2253125 44.20726562 114.6875 45.125 C115.17734375 46.02605469 115.6671875 46.92710937 116.171875 47.85546875 C118.12093074 51.56195958 119.80549287 55.0152221 120.6875 59.125 C121.3475 59.125 122.0075 59.125 122.6875 59.125 C123.0175 60.445 123.3475 61.765 123.6875 63.125 C118.17870064 62.52371853 113.64218645 60.57886717 108.625 58.375 C106.9238885 57.6415769 105.22206267 56.90980842 103.51953125 56.1796875 C102.69275879 55.82487305 101.86598633 55.47005859 101.01416016 55.10449219 C97.97515773 53.82511362 94.90105269 52.65396474 91.8125 51.5 C86.47267765 49.48243488 81.34104351 47.14363959 76.17578125 44.71875 C67.76118986 40.87423344 59.13897352 37.49273397 50.54296875 34.078125 C48.79943711 33.38552253 47.05594739 32.69281453 45.3125 32 C44.03451538 31.49218994 44.03451538 31.49218994 42.73071289 30.97412109 C37.42988883 28.85586514 32.21419933 26.61054412 27.0390625 24.19921875 C22.9858858 22.34768454 18.83485387 20.75141328 14.6875 19.125 C3.29456808 14.59800718 -8.05679575 9.98541774 -19.3125 5.125 C-19.3125 3.805 -19.3125 2.485 -19.3125 1.125 C-17.6625 0.795 -16.0125 0.465 -14.3125 0.125 C-14.3125 -0.535 -14.3125 -1.195 -14.3125 -1.875 C-9.98044086 -4.04102957 -4.37506309 -1.378225 0 0 Z " fill="#000000" transform="translate(407.3125,413.875)"/>
<path d="M0 0 C1.32 0 2.64 0 4 0 C4.30292969 1.11375 4.60585937 2.2275 4.91796875 3.375 C8.36448558 15.96270147 12.09776688 28.42655961 16.2734375 40.79296875 C17.11563874 43.35126821 17.90261176 45.92351903 18.6875 48.5 C20.68459012 55.04219178 22.77892904 61.55142618 24.875 68.0625 C27.68594394 76.80243169 30.41710271 85.5600324 33.00927734 94.36743164 C34.35094621 98.91190492 35.78747691 103.41188614 37.30151367 107.90185547 C38.25706141 110.7721726 39.12975947 113.66532424 40 116.5625 C41.13172703 120.2884936 42.31785978 123.94161717 43.75 127.5625 C45 131 45 131 45 135 C42.36 135 39.72 135 37 135 C36.43732422 133.45892578 36.43732422 133.45892578 35.86328125 131.88671875 C33.23365428 124.74471415 30.55863222 117.69359224 27.2734375 110.8203125 C23.40622765 102.25551032 20.22481454 93.38150792 16.91210938 84.59179688 C15.43845212 80.70099967 13.95325059 76.84132727 12.25390625 73.04296875 C11 70 11 70 11 67 C10.34 67 9.68 67 9 67 C8.608125 65.741875 8.21625 64.48375 7.8125 63.1875 C6.63763688 59.65193062 5.27101111 56.30884623 3.6875 52.9375 C1.21871993 47.65044389 -0.82534965 42.26123916 -2.82592773 36.78540039 C-4.1947061 33.06223392 -5.66235806 29.45762908 -7.375 25.875 C-8.94495599 22.41321421 -9.59856517 19.84791897 -9 16 C-7.5 12.625 -7.5 12.625 -6 10 C-5.34 10 -4.68 10 -4 10 C-3.8453125 9.195625 -3.8453125 9.195625 -3.6875 8.375 C-2.81907303 5.37497956 -1.44379704 2.7620465 0 0 Z " fill="#000000" transform="translate(247,195)"/>
<path d="M0 0 C1.32 0 2.64 0 4 0 C4.48210937 0.98742187 4.96421875 1.97484375 5.4609375 2.9921875 C6.09874577 4.2865631 6.73677829 5.58082821 7.375 6.875 C7.69210937 7.52597656 8.00921875 8.17695313 8.3359375 8.84765625 C9.68890121 11.58177041 10.82772518 13.82772518 13 16 C12.58652435 19.80003811 11.26936567 23.24653709 9.9375 26.8125 C9.57527344 27.78832031 9.21304688 28.76414063 8.83984375 29.76953125 C8.56269531 30.50558594 8.28554688 31.24164063 8 32 C7.34 32 6.68 32 6 32 C5.79375 33.216875 5.5875 34.43375 5.375 35.6875 C4.18651687 41.11690134 1.86237 45.8357228 -0.53515625 50.82421875 C-2.37426841 54.81141392 -3.71989602 58.80410363 -5 63 C-5.66 63 -6.32 63 -7 63 C-7.226875 64.258125 -7.45375 65.51625 -7.6875 66.8125 C-8.73520213 71.5234963 -10.51808298 75.58389613 -12.58203125 79.9296875 C-14.15064223 83.326184 -15.56134463 86.77259403 -16.9375 90.25 C-17.18781982 90.88083496 -17.43813965 91.51166992 -17.69604492 92.16162109 C-18.46615046 94.106918 -19.23354483 96.05326216 -20 98 C-21.01759953 100.58462543 -22.03770143 103.16821983 -23.0625 105.75 C-23.4342334 106.68658447 -23.4342334 106.68658447 -23.81347656 107.64208984 C-25.33465403 111.43902096 -26.96248003 115.16672354 -28.6875 118.875 C-30.8356501 123.49698748 -32.48470326 128.13509994 -34 133 C-40.875 134 -40.875 134 -42 134 C-41.42186758 126.62881164 -39.26655782 120.01192636 -37 113 C-36.39158683 111.06495663 -35.78845113 109.12832432 -35.18603516 107.19140625 C-34.55777165 105.17230413 -33.92568208 103.15443043 -33.29296875 101.13671875 C-32.4135779 98.32894463 -31.54200145 95.51889565 -30.67578125 92.70703125 C-30.45784912 92.00231689 -30.23991699 91.29760254 -30.01538086 90.5715332 C-29.41242406 88.62106104 -28.81160974 86.66992693 -28.2109375 84.71875 C-27.1711409 81.52556817 -26.02006447 78.40110468 -24.82568359 75.26367188 C-23.10982702 70.55952577 -21.63767224 65.77246103 -20.125 61 C-19.77203857 59.89148682 -19.41907715 58.78297363 -19.05541992 57.64086914 C-16.34037064 49.10315412 -13.65685942 40.55598796 -11 32 C-3.4761712 7.78000221 -3.4761712 7.78000221 0 0 Z " fill="#000000" transform="translate(367,197)"/>
<path d="M0 0 C1.16402344 0.31839844 2.32804687 0.63679688 3.52734375 0.96484375 C3.19734375 2.28484375 2.86734375 3.60484375 2.52734375 4.96484375 C1.86734375 4.96484375 1.20734375 4.96484375 0.52734375 4.96484375 C0.17349609 6.03025391 0.17349609 6.03025391 -0.1875 7.1171875 C-1.69941153 10.46728934 -3.62448863 12.7545101 -6.03515625 15.52734375 C-10.2947221 20.50378219 -14.2827392 25.6212543 -18.18359375 30.88671875 C-25.20675596 40.33083448 -32.40902716 49.6695211 -39.78515625 58.83984375 C-41.59549436 61.05913497 -41.59549436 61.05913497 -43.47265625 63.96484375 C-44.13265625 63.96484375 -44.79265625 63.96484375 -45.47265625 63.96484375 C-45.7975 64.98578125 -45.7975 64.98578125 -46.12890625 66.02734375 C-48.21139064 70.57975149 -51.41969718 74.11631261 -54.62353516 77.92993164 C-57.27736877 81.12128493 -59.70102259 84.19857783 -61.71484375 87.8359375 C-65.81060501 94.89541351 -65.81060501 94.89541351 -69.47265625 96.96484375 C-76.69016998 98.50286806 -84.19466776 97.7717055 -91.47265625 96.96484375 C-91.47265625 92.96484375 -91.47265625 92.96484375 -89.86328125 91.21875 C-88.80367187 90.38150391 -88.80367187 90.38150391 -87.72265625 89.52734375 C-84.52130922 86.88862362 -81.9974134 84.27314622 -79.47265625 80.96484375 C-77.80598958 79.29817708 -76.13932292 77.63151042 -74.47265625 75.96484375 C-72.38090656 73.57484843 -70.30363382 71.17400101 -68.2421875 68.7578125 C-67.65824219 68.16613281 -67.07429688 67.57445312 -66.47265625 66.96484375 C-65.81265625 66.96484375 -65.15265625 66.96484375 -64.47265625 66.96484375 C-64.20187256 66.371875 -63.93108887 65.77890625 -63.65209961 65.16796875 C-62.48702533 62.99168427 -61.29742719 61.49467818 -59.6015625 59.71484375 C-58.74848511 58.81149292 -58.74848511 58.81149292 -57.87817383 57.88989258 C-57.26997803 57.25462646 -56.66178223 56.61936035 -56.03515625 55.96484375 C-54.75866524 54.61500812 -53.48262865 53.26474263 -52.20703125 51.9140625 C-51.57345703 51.24552246 -50.93988281 50.57698242 -50.28710938 49.88818359 C-47.75954947 47.20894288 -45.26824145 44.49775924 -42.78515625 41.77734375 C-37.28589527 35.759743 -37.28589527 35.759743 -34.59375 32.8359375 C-34.11317139 32.31346436 -33.63259277 31.79099121 -33.13745117 31.25268555 C-31.81735214 29.81777549 -30.49659217 28.38347356 -29.17578125 26.94921875 C-25.24832079 22.64279927 -21.41727854 18.24797629 -17.63818359 13.81103516 C-15.79345619 11.65357604 -13.91746915 9.52703131 -12.03515625 7.40234375 C-11.41833984 6.66693359 -10.80152344 5.93152344 -10.16601562 5.17382812 C-4.96562108 -0.61100202 -4.96562108 -0.61100202 0 0 Z " fill="#000000" transform="translate(267.47265625,431.03515625)"/>
<path d="M0 0 C1.4375 1.42578125 1.4375 1.42578125 3 3.3125 C6.0853242 6.95344402 9.26205661 10.49489047 12.5 14 C16.13557377 17.94784293 19.72617669 21.92660505 23.234375 25.98828125 C26.15412748 29.31499038 29.17202848 32.55352906 32.1796875 35.80078125 C34 38 34 38 35 41 C35.66 41 36.32 41 37 41 C38.33984375 42.328125 38.33984375 42.328125 39.9375 44.25 C43.00852181 47.86371797 46.15980419 51.38959626 49.375 54.875 C55.46767131 61.49842087 61.52952238 68.14814576 67.4375 74.9375 C70.36867224 78.29527477 73.32991434 81.62535868 76.3125 84.9375 C77.15425781 85.87464844 77.99601562 86.81179688 78.86328125 87.77734375 C80.79867031 90.03886196 80.79867031 90.03886196 83 91 C83 92.32 83 93.64 83 95 C65.13301524 96.7473525 65.13301524 96.7473525 60.12207031 93.95263672 C56.94513278 91.1705209 54.79166456 87.78809077 53 84 C53 83.34 53 82.68 53 82 C52.34 82 51.68 82 51 82 C50.01960638 80.59913584 49.04834761 79.19066912 48.1328125 77.74658203 C46.25502176 74.85138484 44.11666623 72.16030246 42 69.4375 C41.36191406 68.61088867 41.36191406 68.61088867 40.7109375 67.76757812 C38.82115017 65.32418745 36.91584075 62.89496403 34.984375 60.484375 C32.69910798 57.62329267 30.46611355 54.72748596 28.25 51.8125 C27.45078125 50.76707031 26.6515625 49.72164063 25.828125 48.64453125 C24 46 24 46 24 44 C22.515 43.505 22.515 43.505 21 43 C20.0304764 41.62929422 19.07063162 40.24969206 18.18359375 38.82421875 C16.35044104 35.99886457 14.24700304 33.38478606 12.171875 30.734375 C11 29 11 29 11 27 C10.34 27 9.68 27 9 27 C7.70409429 25.40618494 6.48847306 23.74675218 5.3125 22.0625 C2.0948583 17.50956641 -1.24101623 13.10874559 -4.75 8.77734375 C-6 7 -6 7 -6 5 C-6.66 5 -7.32 5 -8 5 C-7.67 3.35 -7.34 1.7 -7 0 C-3.98968256 -0.93423645 -3.13349732 -1.04449911 0 0 Z " fill="#000000" transform="translate(355,433)"/>
<path d="M0 0 C0 0.66 0 1.32 0 2 C0.639375 2.2475 1.27875 2.495 1.9375 2.75 C4 4 4 4 4.62890625 6.078125 C4.75136719 6.71234375 4.87382812 7.3465625 5 8 C3.86908936 8.24121582 3.86908936 8.24121582 2.71533203 8.48730469 C-14.78133253 12.21071756 -14.78133253 12.21071756 -32.25 16.0625 C-40.30107939 17.87282996 -48.37962276 19.54348752 -56.4609375 21.21289062 C-61.57213257 22.27252863 -66.67016423 23.35955305 -71.75 24.5625 C-80.44668866 26.62130793 -89.23179427 28.27782998 -98 30 C-98.33 29.34 -98.66 28.68 -99 28 C-98.22265625 26.2734375 -98.22265625 26.2734375 -97.0625 24.375 C-96.0415625 22.704375 -96.0415625 22.704375 -95 21 C-94.34 21 -93.68 21 -93 21 C-92.8453125 19.6078125 -92.8453125 19.6078125 -92.6875 18.1875 C-91.96887203 14.85567941 -91.55373849 14.06263494 -89 12 C-88.59531494 11.50056885 -88.19062988 11.0011377 -87.77368164 10.48657227 C-85.28389267 8.39981039 -83.20219406 8.31361429 -79.99609375 7.90234375 C-78.78880615 7.74169434 -77.58151855 7.58104492 -76.33764648 7.41552734 C-75.05059814 7.25777832 -73.7635498 7.1000293 -72.4375 6.9375 C-71.11323593 6.7661129 -69.78909838 6.59374535 -68.46508789 6.42041016 C-60.5772215 5.405347 -52.68063527 4.4762365 -44.77099609 3.64819336 C-39.8980078 3.13132627 -35.11041883 2.36631787 -30.2890625 1.50390625 C-25.01871417 0.69645383 -19.71544771 0.20137687 -14.40844727 -0.30273438 C-13.22980103 -0.4177832 -13.22980103 -0.4177832 -12.02734375 -0.53515625 C-11.32343506 -0.600979 -10.61952637 -0.66680176 -9.89428711 -0.73461914 C-3.53722941 -1.62521351 -3.53722941 -1.62521351 0 0 Z " fill="#000000" transform="translate(213,397)"/>
<path d="M0 0 C5.63205057 0.95101022 11.25053028 1.68812455 16.93188477 2.27270508 C22.5013565 2.85065793 27.94377883 3.60419295 33.43579102 4.71801758 C35.95630952 5.13207929 38.41773828 5.41391291 40.95922852 5.63989258 C42.1715918 5.75204102 42.1715918 5.75204102 43.40844727 5.86645508 C45.01782557 6.00951093 46.6286086 6.13773786 48.24047852 6.24926758 C51.93132731 6.58246921 53.9326556 6.83943704 56.96704102 9.09301758 C58.43188477 11.21020508 58.43188477 11.21020508 58.43188477 14.21020508 C59.09188477 14.21020508 59.75188477 14.21020508 60.43188477 14.21020508 C60.43188477 15.53020508 60.43188477 16.85020508 60.43188477 18.21020508 C61.09188477 18.21020508 61.75188477 18.21020508 62.43188477 18.21020508 C65.27128997 21.88472946 66.43188477 23.47907089 66.43188477 28.21020508 C59.64285523 27.57785944 53.14181073 26.39648548 46.49438477 24.89770508 C45.48802979 24.67477783 44.4816748 24.45185059 43.44482422 24.22216797 C40.43957681 23.55563079 37.43570447 22.88314201 34.43188477 22.21020508 C32.8096157 21.85025825 31.18722971 21.49083777 29.56469727 21.13208008 C26.6291557 20.48259866 23.69427005 19.83029441 20.76000977 19.17504883 C17.81302472 18.51712039 14.86506401 17.86383711 11.91625977 17.21411133 C-2.29443532 14.07955612 -16.46408372 10.7973576 -30.56811523 7.21020508 C-30.56811523 5.89020508 -30.56811523 4.57020508 -30.56811523 3.21020508 C-28.91811523 2.88020508 -27.26811523 2.55020508 -25.56811523 2.21020508 C-25.56811523 1.22020508 -25.56811523 0.23020508 -25.56811523 -0.78979492 C-18.36356318 -4.39207095 -7.64188993 -1.29744888 0 0 Z " fill="#000000" transform="translate(435.568115234375,399.789794921875)"/>
<path d="M0 0 C1.93457031 0.37084961 1.93457031 0.37084961 4 1 C5.046875 3.06640625 5.046875 3.06640625 5.75 5.5625 C5.99234375 6.38878906 6.2346875 7.21507812 6.484375 8.06640625 C6.65453125 8.70449219 6.8246875 9.34257812 7 10 C7.66 10 8.32 10 9 10 C10.35439668 12.70879335 10.06501451 15.00933268 10 18 C9.34 18 8.68 18 8 18 C7.77699219 18.65226562 7.55398438 19.30453125 7.32421875 19.9765625 C5.54273955 24.04401057 3.20712167 27.64339416 0.8125 31.375 C0.29075195 32.19500488 -0.23099609 33.01500977 -0.76855469 33.85986328 C-5.68843316 41.56863474 -10.70094663 49.21708281 -15.70947266 56.8684082 C-19.50878383 62.68185331 -23.22063416 68.52811791 -26.82421875 74.46484375 C-29.93780087 79.56191603 -33.16647621 84.58742747 -36.375 89.625 C-37.30517944 91.08595093 -37.30517944 91.08595093 -38.25415039 92.57641602 C-40.47985138 96.06745274 -42.70338229 99.55507343 -45 103 C-47.31 102.67 -49.62 102.34 -52 102 C-51.40675331 98.27977984 -50.35721558 95.39979186 -48.59375 92.078125 C-47.85487549 90.67457764 -47.85487549 90.67457764 -47.10107422 89.24267578 C-46.57271973 88.25509277 -46.04436523 87.26750977 -45.5 86.25 C-44.96262207 85.23534668 -44.42524414 84.22069336 -43.87158203 83.17529297 C-42.77640658 81.10814524 -41.67891808 79.04222128 -40.57910156 76.97753906 C-39.12755629 74.24051894 -37.695672 71.49452367 -36.2734375 68.7421875 C-35.86544922 67.95682617 -35.45746094 67.17146484 -35.03710938 66.36230469 C-34.27689319 64.89872881 -33.52023331 63.43329882 -32.76757812 61.96582031 C-30.22627217 57.11313609 -30.22627217 57.11313609 -28 56 C-27.65322806 54.33607749 -27.32246282 52.66880395 -27 51 C-26.20028505 49.20391888 -25.34455414 47.43183488 -24.4375 45.6875 C-23.98246094 44.80449219 -23.52742188 43.92148437 -23.05859375 43.01171875 C-22.70925781 42.34785156 -22.35992187 41.68398438 -22 41 C-21.34 41 -20.68 41 -20 41 C-19.9278125 40.35546875 -19.855625 39.7109375 -19.78125 39.046875 C-18.67843037 34.74587846 -16.6115373 31.13713035 -14.5 27.25 C-13.83701904 26.01092896 -13.83701904 26.01092896 -13.16064453 24.74682617 C-12.24003608 23.02637973 -11.31698769 21.30723684 -10.39160156 19.58935547 C-8.19827738 15.50823332 -6.03835881 11.40955798 -3.875 7.3125 C-2.58404501 4.87462219 -1.29200023 2.43732411 0 0 Z " fill="#000000" transform="translate(387,231)"/>
<path d="M0 0 C0.99 0 1.98 0 3 0 C3.35191406 0.71542969 3.70382813 1.43085938 4.06640625 2.16796875 C7.44028029 8.97738032 10.96691429 15.65520409 14.6796875 22.28515625 C16 25 16 25 16 28 C16.66 28 17.32 28 18 28 C18.46148437 28.93457031 18.92296875 29.86914062 19.3984375 30.83203125 C23.17085744 38.43974479 27.02474677 45.99612538 31 53.5 C34.43073643 59.97607745 37.77400194 66.48529728 41.01586914 73.05786133 C42.77351086 76.60396492 44.58302704 80.11354232 46.4609375 83.59765625 C46.87335693 84.36384277 47.28577637 85.1300293 47.71069336 85.91943359 C48.50774512 87.392988 49.31034251 88.86356104 50.11938477 90.33056641 C52.03919793 93.87924712 53.50223451 96.93096465 54 101 C51.36 101.33 48.72 101.66 46 102 C45.49210937 101.09378906 44.98421875 100.18757813 44.4609375 99.25390625 C40.98502663 93.08855495 37.46895316 87.02168806 33.4765625 81.171875 C29.0738821 74.69597472 24.99861481 68.00958289 20.94091797 61.31445312 C20.22766357 60.13786133 20.22766357 60.13786133 19.5 58.9375 C18.78674561 57.7609082 18.78674561 57.7609082 18.05908203 56.56054688 C15.06481342 51.65312977 11.90045445 46.9355291 8.53515625 42.2734375 C6.30732754 38.97421026 4.53193914 35.46913446 2.6953125 31.94140625 C1.3961087 29.68725772 0.08698947 27.67609574 -1.4453125 25.58984375 C-1.86699707 25.01339111 -2.28868164 24.43693848 -2.72314453 23.84301758 C-3.55965753 22.71748374 -4.41181005 21.6033687 -5.28076172 20.50268555 C-6.4375 18.9453125 -6.4375 18.9453125 -8 16 C-7.3125 13.3046875 -7.3125 13.3046875 -6 11 C-5.67 10.01 -5.34 9.02 -5 8 C-4.34 8 -3.68 8 -3 8 C-2.87625 7.4225 -2.7525 6.845 -2.625 6.25 C-1.99351176 3.97664233 -1.11141809 2.0746471 0 0 Z " fill="#000000" transform="translate(227,230)"/>
<path d="M0 0 C1.98 0.33 3.96 0.66 6 1 C5.44380331 5.6889493 4.11817327 9.19924267 1.9375 13.375 C1.38964844 14.43460937 0.84179688 15.49421875 0.27734375 16.5859375 C-0.14417969 17.38257813 -0.56570313 18.17921875 -1 19 C-1.66 19 -2.32 19 -3 19 C-3.15275391 20.07314453 -3.15275391 20.07314453 -3.30859375 21.16796875 C-4.08855479 24.36272443 -5.32942075 26.52141337 -7.0625 29.3125 C-9.83656646 33.93781974 -12.37222517 38.59765789 -14.75 43.4375 C-17.90260617 49.84491265 -21.16997724 56.18296111 -24.5 62.5 C-29.12130366 71.27478944 -33.61026461 80.10732688 -38 89 C-38.66 89 -39.32 89 -40 89 C-40.144375 89.639375 -40.28875 90.27875 -40.4375 90.9375 C-41 93 -41 93 -42 94 C-44.86267567 94.07325168 -47.700719 94.09238205 -50.5625 94.0625 C-51.36880859 94.05798828 -52.17511719 94.05347656 -53.00585938 94.04882812 C-55.00393756 94.03700518 -57.00197783 94.01906914 -59 94 C-58.43636981 90.38390069 -57.52225472 87.77542213 -55.5625 84.6875 C-55.13066406 83.99011719 -54.69882813 83.29273438 -54.25390625 82.57421875 C-53.84011719 82.05472656 -53.42632812 81.53523437 -53 81 C-52.34 81 -51.68 81 -51 81 C-50.814375 80.21625 -50.62875 79.4325 -50.4375 78.625 C-48.77892864 74.44251571 -46.4960644 71.28146117 -43.87109375 67.65234375 C-39.45942765 61.39864588 -35.76300247 54.65761975 -32 48 C-31.34 48 -30.68 48 -30 48 C-29.773125 47.175 -29.54625 46.35 -29.3125 45.5 C-27.75058943 41.33490514 -25.77149893 37.4999057 -23 34 C-22.34 34 -21.68 34 -21 34 C-20.814375 33.21625 -20.62875 32.4325 -20.4375 31.625 C-18.7777149 27.43945496 -16.49487038 24.27708835 -13.86328125 20.6484375 C-12.0827063 18.11755739 -10.49557762 15.54716479 -8.9375 12.875 C-6.26677382 8.32540715 -3.26224068 4.14142611 0 0 Z " fill="#000000" transform="translate(275,434)"/>
<path d="M0 0 C2.64 0 5.28 0 8 0 C8.83848804 1.45537568 9.67063934 2.91440373 10.5 4.375 C10.9640625 5.18710937 11.428125 5.99921875 11.90625 6.8359375 C13 9 13 9 13 11 C13.66 11 14.32 11 15 11 C16.7265625 13.5546875 16.7265625 13.5546875 18.625 16.875 C19.25664062 17.96554687 19.88828125 19.05609375 20.5390625 20.1796875 C22 23 22 23 22 25 C22.66 25 23.32 25 24 25 C25.00508801 26.78881736 26.00392736 28.58114696 27 30.375 C27.556875 31.37273437 28.11375 32.37046875 28.6875 33.3984375 C30 36 30 36 30 38 C30.66 38 31.32 38 32 38 C33.22264708 39.84722824 34.35379694 41.75547885 35.4375 43.6875 C36.03433594 44.74324219 36.63117188 45.79898438 37.24609375 46.88671875 C37.82488281 47.91410156 38.40367187 48.94148438 39 50 C39.56847656 50.91394531 40.13695312 51.82789063 40.72265625 52.76953125 C42 55 42 55 42 57 C42.66 57 43.32 57 44 57 C44.49628906 57.88300781 44.99257813 58.76601563 45.50390625 59.67578125 C49.79102188 67.26402904 54.25474767 74.68632226 59 82 C59.98375728 83.51786792 60.96339996 85.03841651 61.9375 86.5625 C62.33839844 87.18253906 62.73929687 87.80257812 63.15234375 88.44140625 C64 90 64 90 64 92 C58.06 92 52.12 92 46 92 C44.5127901 89.27495075 43.03510697 86.54542613 41.5625 83.8125 C40.93118164 82.65911133 40.93118164 82.65911133 40.28710938 81.48242188 C38.24987575 77.68501839 36.47990505 74.35404764 36 70 C35.34 70 34.68 70 34 70 C32.74335022 67.09399739 32 65.20395416 32 62 C31.34 62 30.68 62 30 62 C29.45730469 60.83082031 28.91460937 59.66164063 28.35546875 58.45703125 C27.63295506 56.90878763 26.91029087 55.36061424 26.1875 53.8125 C25.83107422 53.04357422 25.47464844 52.27464844 25.10742188 51.48242188 C23.60006719 48.26027837 22.10476726 45.17027583 20.23828125 42.13671875 C19 40 19 40 19 37 C18.34 37 17.68 37 17 37 C16.52691406 36.04222656 16.05382812 35.08445312 15.56640625 34.09765625 C14.89888752 32.75238077 14.23087901 31.40734827 13.5625 30.0625 C13.20994141 29.3519043 12.85738281 28.64130859 12.49414062 27.90917969 C10.54367115 24.00311691 8.54767276 20.13026362 6.46484375 16.29296875 C6.05355225 15.53298584 5.64226074 14.77300293 5.21850586 13.98999023 C4.41785791 12.51815193 3.61026925 11.0500641 2.79516602 9.58618164 C0.87342606 6.04809616 0 4.11036722 0 0 Z " fill="#000000" transform="translate(335,436)"/>
<path d="M0 0 C2.31 0 4.62 0 7 0 C8.34300285 4.02900854 7.04380122 6.75789249 5.75 10.625 C5.42322266 11.63626953 5.42322266 11.63626953 5.08984375 12.66796875 C4.40379586 14.78228008 3.70363747 16.89148171 3 19 C2.76643799 19.70374756 2.53287598 20.40749512 2.29223633 21.13256836 C0.92899204 25.23422332 -0.44865592 29.33087553 -1.83203125 33.42578125 C-5.39740404 44.00726316 -8.87025508 54.59894138 -12.0090332 65.31567383 C-14.57650935 74.07292039 -17.54866932 82.55019041 -21 91 C-26.28 91 -31.56 91 -37 91 C-34.41924464 82.82760803 -31.2194031 74.93503009 -28 67 C-27.20707927 65.02133542 -26.4152119 63.04224795 -25.625 61.0625 C-25.08333333 59.70833333 -24.54166667 58.35416667 -24 57 C-23.34 57 -22.68 57 -22 57 C-21.814375 55.845 -21.62875 54.69 -21.4375 53.5 C-20.25939967 48.16094958 -18.06721344 43.34886875 -15.82568359 38.39453125 C-12.52438262 31.06059586 -9.74340075 23.55691342 -7 16 C-6.34 16 -5.68 16 -5 16 C-4.89042969 15.43152344 -4.78085937 14.86304688 -4.66796875 14.27734375 C-3.62061834 9.17683242 -2.20728247 4.715558 0 0 Z " fill="#000000" transform="translate(284,437)"/>
<path d="M0 0 C0.99 0 1.98 0 3 0 C3.495 1.485 3.495 1.485 4 3 C4.66 3.33 5.32 3.66 6 4 C7.10546875 5.7421875 7.10546875 5.7421875 8.1875 7.875 C8.73470703 8.92300781 8.73470703 8.92300781 9.29296875 9.9921875 C10 12 10 12 9 15 C7.37296067 16.72872929 5.71541898 18.36181552 4 20 C-0.83062683 24.73111953 -5.51961788 29.50418066 -9.921875 34.63671875 C-13.23856392 38.40851724 -16.68244307 42.06205871 -20.11816406 45.7253418 C-22.94216629 48.74619714 -25.71394198 51.79968408 -28.42578125 54.921875 C-32.08239484 59.12459963 -35.86802969 63.19542607 -39.6875 67.25 C-40.33783203 67.94351563 -40.98816406 68.63703125 -41.65820312 69.3515625 C-42.89782398 70.67079203 -44.14123607 71.98647371 -45.38916016 73.29785156 C-46.69723395 74.68007201 -47.9796148 76.08657447 -49.25390625 77.5 C-49.83011719 77.995 -50.40632813 78.49 -51 79 C-54.25 78.75 -54.25 78.75 -57 78 C-57.4719699 75.35395598 -57.40343897 73.61309024 -55.90722656 71.33935547 C-54.36105652 69.48901237 -52.76412256 67.70602697 -51.125 65.9375 C-50.01979389 64.72074757 -48.91810597 63.50078828 -47.8203125 62.27734375 C-47.32805176 61.74359131 -46.83579102 61.20983887 -46.32861328 60.65991211 C-44.89728257 58.87166927 -43.99131692 57.05773765 -43 55 C-42.01628104 53.98397982 -41.01278168 52.98705282 -40 52 C-38.29028189 49.88916666 -36.60513375 47.76851735 -34.9375 45.625 C-34.45289307 45.0050415 -33.96828613 44.38508301 -33.46899414 43.74633789 C-29.02919763 38.05805182 -24.62772527 32.34046059 -20.23828125 26.61328125 C-18.98442496 24.97970823 -17.72713202 23.34883871 -16.46875 21.71875 C-16.04996582 21.17573242 -15.63118164 20.63271484 -15.19970703 20.07324219 C-14.3657032 18.99242484 -13.53075888 17.91233249 -12.69482422 16.83300781 C-10.57801627 14.09045569 -8.50114465 11.32710836 -6.4765625 8.515625 C-6.07058838 7.95689697 -5.66461426 7.39816895 -5.24633789 6.82250977 C-4.12683685 5.27635623 -3.01815561 3.72238528 -1.91015625 2.16796875 C-1.27980469 1.45253906 -0.64945312 0.73710937 0 0 Z " fill="#000000" transform="translate(403,259)"/>
<path d="M0 0 C1.203125 1.80078125 1.203125 1.80078125 2.25 4.3125 C2.66894531 5.30378906 3.08789062 6.29507812 3.51953125 7.31640625 C4.00808594 8.53199219 4.49664062 9.74757813 5 11 C5.2995459 11.73847168 5.5990918 12.47694336 5.90771484 13.23779297 C8.30330594 19.14612114 10.65599823 25.07105434 13 31 C16.8287087 40.79080446 16.8287087 40.79080446 21 50.4375 C23.14954229 55.16470919 24.91391167 60.03372535 26.70776367 64.90356445 C28.6425323 70.13032746 30.76296607 75.25420815 33.01953125 80.3515625 C34 83 34 83 35 89 C30.05 89 25.1 89 20 89 C17.32912749 82.73726446 15.29052004 76.70034452 13.80859375 70.0546875 C13.02547236 67.09622893 11.99258399 64.31205477 10.89428711 61.45898438 C8.9027796 55.98301833 7.27225245 50.38132643 5.5625 44.8125 C5.18029297 43.57435547 4.79808594 42.33621094 4.40429688 41.06054688 C2.8995454 36.18351704 1.4004881 31.30474995 -0.09716797 26.42553711 C-2.15387375 19.71783042 -2.15387375 19.71783042 -4.265625 13.02734375 C-4.75289063 11.49787109 -4.75289063 11.49787109 -5.25 9.9375 C-5.75273437 8.37322266 -5.75273437 8.37322266 -6.265625 6.77734375 C-7 4 -7 4 -7 0 C-3.86715318 -1.04428227 -2.95508946 -1.25886811 0 0 Z " fill="#000000" transform="translate(332,439)"/>
<path d="M0 0 C1.32 0 2.64 0 4 0 C5.89965105 2.19400593 7.50227114 4.30103185 9.125 6.6875 C10.09078939 8.06106348 11.05827452 9.43343602 12.02734375 10.8046875 C12.51702637 11.50303711 13.00670898 12.20138672 13.51123047 12.92089844 C16.2155179 16.69749925 19.10713134 20.33043719 22.00244141 23.96166992 C25 27.78536105 25 27.78536105 25 30 C25.66 30 26.32 30 27 30 C27.9289278 31.3417846 28.84723964 32.69199015 29.71484375 34.07421875 C31.81312629 37.21845368 34.2323878 40.11059669 36.609375 43.046875 C38 45 38 45 38 47 C38.66 47 39.32 47 40 47 C40.98357588 48.40360078 41.95804209 49.81482561 42.87597656 51.26220703 C44.71509614 54.10557218 46.8038499 56.76163454 48.875 59.4375 C49.31118652 60.0051709 49.74737305 60.5728418 50.19677734 61.15771484 C52.57983615 64.23954543 55.02477389 67.22141418 57.625 70.125 C60 73 60 73 60 76 C56.99955085 76.78959188 55.03081015 77.2881404 52 77 C49.1425712 75.12329888 47.15194996 72.63181006 45 70 C43.91885148 68.76891118 42.83547147 67.5397789 41.75 66.3125 C40.89148438 65.31669922 40.89148438 65.31669922 40.015625 64.30078125 C37.55519651 61.49226889 35.03021422 58.74541506 32.5 56 C28.84940646 52.03482749 25.25045752 48.03287935 21.71484375 43.96484375 C15.21272597 36.51480903 8.49005878 29.27380775 1.69702148 22.08959961 C1.11766846 21.4735083 0.53831543 20.85741699 -0.05859375 20.22265625 C-0.57736084 19.67359619 -1.09612793 19.12453613 -1.63061523 18.55883789 C-3 17 -3 17 -5 14 C-4.625 10.3125 -4.625 10.3125 -4 7 C-3.34 7 -2.68 7 -2 7 C-1.34 4.69 -0.68 2.38 0 0 Z " fill="#000000" transform="translate(210,258)"/>
<path d="M0 0 C2.31 0 4.62 0 7 0 C7.13405455 6.63485712 6.64827186 12.94915535 5.7578125 19.51953125 C5.62937958 20.49935471 5.50094666 21.47917816 5.36862183 22.48869324 C5.09726107 24.55052022 4.823139 26.61198548 4.54638672 28.6730957 C4.12770351 31.79235835 3.71738946 34.91263084 3.30859375 38.03320312 C2.13809909 46.90782692 0.93606022 55.76156869 -0.60205078 64.58129883 C-1.33973694 69.06489192 -1.77067054 73.58262618 -2.2109375 78.10351562 C-2.65345758 82.227345 -3.42370884 85.05927209 -5 89 C-9.62 89 -14.24 89 -19 89 C-18.53888891 82.65972254 -17.28515828 76.64477136 -15.79394531 70.48193359 C-14.12203565 63.56657437 -12.54598865 56.6320713 -11 49.6875 C-10.7414624 48.52645752 -10.4829248 47.36541504 -10.21655273 46.16918945 C-8.50705036 38.43448943 -6.91980064 30.68318973 -5.40722656 22.90795898 C-3.88655237 15.19929819 -1.99499679 7.59796652 0 0 Z " fill="#000000" transform="translate(294,439)"/>
<path d="M0 0 C0.50799801 2.43839045 1.01598498 4.87678318 1.52392578 7.31518555 C1.97133546 9.46252154 2.41893064 11.60981889 2.86669922 13.75708008 C4.02869088 19.33066672 5.18792848 24.90479019 6.33984375 30.48046875 C8.20288339 39.48668188 10.07123555 48.48405702 12.17578125 57.4375 C13.37912373 62.63867699 14.53765729 67.84926413 15.6875 73.0625 C15.914375 74.07578369 16.14125 75.08906738 16.375 76.13305664 C16.58511719 77.09074951 16.79523438 78.04844238 17.01171875 79.03515625 C17.20209717 79.8950415 17.39247559 80.75492676 17.58862305 81.64086914 C18 84 18 84 18 88 C13.38 88 8.76 88 4 88 C2.92389626 85.84779253 2.65555488 84.22007341 2.31640625 81.84375 C2.19450928 80.99482178 2.0726123 80.14589355 1.94702148 79.27124023 C1.75668335 77.89947632 1.75668335 77.89947632 1.5625 76.5 C1.42980713 75.560354 1.29711426 74.62070801 1.16040039 73.65258789 C0.21411565 66.83922302 -0.58006798 60.01788274 -1.30053711 53.17749023 C-1.73742388 49.10821499 -2.27973709 45.09373894 -3 41.0625 C-4.06558678 35.07689927 -4.64649236 29.06740515 -5.24560547 23.02148438 C-5.81411945 17.41514848 -6.59623416 11.88936353 -7.6328125 6.34765625 C-8 4 -8 4 -8 0 C-4.90645403 -0.99435406 -3.09720845 -0.87840996 0 0 Z " fill="#000000" transform="translate(322,440)"/>
<path d="M0 0 C2.64 0 5.28 0 8 0 C10.38949756 60.12928583 10.38949756 60.12928583 10 88 C5.71 88 1.42 88 -3 88 C-3.09847109 74.1155757 -3.07131529 60.25204389 -2.5625 46.375 C-2.52326416 45.26922607 -2.48402832 44.16345215 -2.44360352 43.02416992 C-2.26342965 38.50806529 -2.0463663 34.03072258 -1.5 29.54296875 C-0.78980752 23.69432477 -0.64461301 17.82154661 -0.4375 11.9375 C-0.39431641 10.78572266 -0.35113281 9.63394531 -0.30664062 8.44726562 C-0.20149148 5.63160509 -0.09934607 2.81587024 0 0 Z " fill="#000000" transform="translate(304,440)"/>
<path d="M0 0 C0.6509259 1.24735567 1.29551669 2.49801832 1.9375 3.75 C2.47697266 4.79414063 2.47697266 4.79414063 3.02734375 5.859375 C3.95786241 7.90726345 4.48652687 9.81823867 5 12 C3.99582031 12.75023437 2.99164063 13.50046875 1.95703125 14.2734375 C-6.20142032 20.37597132 -14.32282651 26.52070834 -22.38378906 32.75146484 C-25.27374212 34.9839754 -28.16826918 37.21053996 -31.0625 39.4375 C-32.62677734 40.64212891 -32.62677734 40.64212891 -34.22265625 41.87109375 C-35.13917969 42.57363281 -36.05570312 43.27617187 -37 44 C-37.74121094 44.58910156 -38.48242188 45.17820312 -39.24609375 45.78515625 C-41 47 -41 47 -43 47 C-43 47.66 -43 48.32 -43 49 C-44.36535528 49.9557487 -45.74144634 50.89884456 -47.16015625 51.7734375 C-49.07443292 52.99544789 -49.07443292 52.99544789 -50.93359375 54.6640625 C-56.04578905 59.02886082 -56.04578905 59.02886082 -59.06640625 58.9375 C-61 58.375 -61 58.375 -64 57 C-63.8125 54.625 -63.8125 54.625 -63 52 C-60.5 50.875 -60.5 50.875 -58 50 C-57.67 49.01 -57.34 48.02 -57 47 C-55.50390625 45.4921875 -55.50390625 45.4921875 -53.5625 43.875 C-50.41929775 41.20634871 -47.31276544 38.51094203 -44.25 35.75 C-43.41984375 35.00363281 -42.5896875 34.25726563 -41.734375 33.48828125 C-39.73105432 31.66525943 -37.74315261 29.83103675 -35.765625 27.98046875 C-35.22260742 27.47483398 -34.67958984 26.96919922 -34.12011719 26.44824219 C-33.05432754 25.45440458 -31.99235424 24.45645576 -30.93457031 23.45410156 C-27.22332733 20 -27.22332733 20 -25 20 C-25 19.34 -25 18.68 -25 18 C-23.5390625 16.4921875 -23.5390625 16.4921875 -21.625 14.875 C-20.99851562 14.33617187 -20.37203125 13.79734375 -19.7265625 13.2421875 C-18 12 -18 12 -16 12 C-16 11.34 -16 10.68 -16 10 C-14.390625 8.37890625 -14.390625 8.37890625 -12.25 6.5625 C-11.55390625 5.96566406 -10.8578125 5.36882812 -10.140625 4.75390625 C-9.43421875 4.17511719 -8.7278125 3.59632813 -8 3 C-7.33484375 2.43152344 -6.6696875 1.86304688 -5.984375 1.27734375 C-4 0 -4 0 0 0 Z " fill="#000000" transform="translate(421,284)"/>
<path d="M0 0 C3.90917433 0.52662452 5.94551285 1.43304996 8.8125 4.125 C9.48925781 4.75019531 10.16601562 5.37539063 10.86328125 6.01953125 C11.56839844 6.67308594 12.27351563 7.32664062 13 8 C15.17180656 9.84622057 17.34903429 11.68563074 19.53125 13.51953125 C21 15 21 15 21 17 C21.556875 17.2475 22.11375 17.495 22.6875 17.75 C28.16812933 20.71250234 32.28043923 25.21361956 36.58984375 29.62890625 C41.79601081 34.90590552 47.35315098 39.70676441 52.953125 44.55859375 C53.96928677 45.45512114 54.98491501 46.35225362 56 47.25 C56.94875 48.08015625 57.8975 48.9103125 58.875 49.765625 C61 52 61 52 61 55 C56.65475926 57.05191924 56.65475926 57.05191924 54.2265625 56.859375 C50.91735617 55.58213747 48.36032861 53.39025887 45.625 51.1875 C44.51454731 50.30406743 43.40257617 49.42254 42.2890625 48.54296875 C41.74797852 48.11419434 41.20689453 47.68541992 40.64941406 47.24365234 C39.00777375 46.00586138 37.32231476 44.90041888 35.5859375 43.80078125 C34.73257813 43.20652344 33.87921875 42.61226563 33 42 C33 41.34 33 40.68 33 40 C32.31035156 39.7834375 31.62070313 39.566875 30.91015625 39.34375 C27.17412889 37.61865817 24.49152303 35.220154 21.4375 32.5 C16.63120874 28.1422079 16.63120874 28.1422079 11 25 C11 24.34 11 23.68 11 23 C10.34 22.814375 9.68 22.62875 9 22.4375 C5.34184303 20.68463312 2.81273909 18.31503406 -0.1328125 15.55859375 C-2.02004569 13.79044854 -2.02004569 13.79044854 -5 13 C-4.47731534 10.23723823 -3.89130413 7.6739124 -3 5 C-2.34 5 -1.68 5 -1 5 C-0.67 3.35 -0.34 1.7 0 0 Z " fill="#000000" transform="translate(196,283)"/>
<path d="M0 0 C0.96842448 1.7171224 1.93684896 3.43424479 2.90527344 5.15136719 C3.94096712 6.90031289 5.09302244 8.57881019 6.25 10.25 C8 13 8 13 8 16 C-9.0896272 16.25380634 -26.28699755 15.77776916 -43.3125 14.25 C-44.38624878 14.17579834 -44.38624878 14.17579834 -45.48168945 14.10009766 C-50.56526104 13.56941212 -52.72655366 11.8111424 -56 8 C-56.763125 7.484375 -57.52625 6.96875 -58.3125 6.4375 C-58.869375 5.963125 -59.42625 5.48875 -60 5 C-60 3.68 -60 2.36 -60 1 C-39.98674046 0.22986536 -20.02932038 -0.14646257 0 0 Z " fill="#000000" transform="translate(474,377)"/>
<path d="M0 0 C1.3984375 1.453125 1.3984375 1.453125 2.375 3.25 C2.88160156 4.12398438 2.88160156 4.12398438 3.3984375 5.015625 C4.26257096 7.86614318 4.15066344 9.23148647 3 12 C0.64180121 13.5107211 -1.46434436 14.62804947 -4 15.75 C-5.46979094 16.44049692 -6.93850821 17.13328298 -8.40625 17.828125 C-9.16679687 18.18326172 -9.92734375 18.53839844 -10.7109375 18.90429688 C-14.36867972 20.65514448 -17.93027465 22.57764935 -21.5 24.5 C-27.75753346 27.84765461 -34.0734934 31.04951865 -40.44628906 34.17163086 C-45.16363907 36.50834538 -49.6126201 39.12387891 -53.984375 42.06640625 C-56 43 -56 43 -58.09375 42.71875 C-60.41067877 41.84515391 -62.71420979 40.95241259 -65 40 C-65 38.68 -65 37.36 -65 36 C-64.39414062 35.72027344 -63.78828125 35.44054687 -63.1640625 35.15234375 C-58.69486986 33.01400696 -54.51873996 30.78053499 -50.5 27.875 C-45.32583244 24.13899392 -39.93486674 20.85039632 -34.46801758 17.56689453 C-29.95800721 14.845745 -25.5171754 12.04679178 -21.12109375 9.14453125 C-20.13463867 8.49814697 -19.14818359 7.8517627 -18.13183594 7.18579102 C-16.19614355 5.9131455 -14.2681048 4.62876779 -12.34863281 3.33178711 C-11.46401367 2.75307861 -10.57939453 2.17437012 -9.66796875 1.578125 C-8.88703857 1.05637695 -8.1061084 0.53462891 -7.30151367 -0.00292969 C-4.4195168 -1.25147909 -2.94761078 -0.96550475 0 0 Z " fill="#000000" transform="translate(434,307)"/>
<path d="M0 0 C8.33393254 -0.0690951 16.66602034 -0.05930035 25 0 C26.71219727 0.00870117 26.71219727 0.00870117 28.45898438 0.01757812 C31.72386559 0.0459684 34.98593202 0.11090361 38.25 0.1875 C39.25417969 0.19322021 40.25835937 0.19894043 41.29296875 0.20483398 C48.28300399 0.4211751 48.28300399 0.4211751 52 3.421875 C52.66 4.27265625 53.32 5.1234375 54 6 C55.36125 7.0209375 55.36125 7.0209375 56.75 8.0625 C59.20137154 10.17340327 59.41795964 10.95694118 60 14 C58.08707153 14.03758423 58.08707153 14.03758423 56.13549805 14.07592773 C51.35872055 14.17081289 46.58206135 14.27082827 41.80541992 14.37231445 C39.746529 14.41535915 37.68760933 14.4570525 35.62866211 14.49731445 C32.65209321 14.55576344 29.67566504 14.61923386 26.69921875 14.68359375 C25.7935466 14.70030624 24.88787445 14.71701874 23.95475769 14.73423767 C18.40979574 14.85990262 12.93131858 15.22513443 7.41271973 15.78283691 C4.20669303 16.07140365 1.02986412 16.09709531 -2.1875 16.0625 C-3.29480469 16.05347656 -4.40210938 16.04445313 -5.54296875 16.03515625 C-6.35378906 16.02355469 -7.16460937 16.01195312 -8 16 C-8 14.68 -8 13.36 -8 12 C-7.34 12 -6.68 12 -6 12 C-5.7525 11.319375 -5.505 10.63875 -5.25 9.9375 C-3.75892022 6.43346252 -1.90943716 3.29494339 0 0 Z " fill="#000000" transform="translate(143,376)"/>
<path d="M0 0 C3 5.22222222 3 5.22222222 3 8 C3.66 8 4.32 8 5 8 C5 9.65 5 11.3 5 13 C-4.76961924 16.11655274 -14.54902059 19.19032258 -24.375 22.125 C-25.20942627 22.37427246 -26.04385254 22.62354492 -26.90356445 22.88037109 C-28.51885769 23.36270561 -30.13417261 23.84496756 -31.74951172 24.32714844 C-34.98134797 25.29340367 -38.2104926 26.26770914 -41.4375 27.25 C-42.88962891 27.69085938 -42.88962891 27.69085938 -44.37109375 28.140625 C-46.16706015 28.72771654 -47.94272242 29.3798215 -49.6953125 30.0859375 C-52.44553661 31.17670435 -54.0636073 31.429716 -57 31 C-60.3125 29.25 -60.3125 29.25 -63 27 C-63 25.68 -63 24.36 -63 23 C-62.45327637 22.82259277 -61.90655273 22.64518555 -61.34326172 22.46240234 C-55.87397107 20.66653328 -50.48637325 18.71996097 -45.125 16.625 C-44.33689941 16.31828369 -43.54879883 16.01156738 -42.73681641 15.69555664 C-37.69064379 13.71346481 -32.76288726 11.55925169 -27.85546875 9.25390625 C-23.5294074 7.35422678 -19.09937705 5.74474802 -14.65576172 4.14233398 C-11.54426984 3.0090117 -8.63809992 1.80853211 -5.70703125 0.2578125 C-3 -1 -3 -1 0 0 Z " fill="#000000" transform="translate(446,328)"/>
<path d="M0 0 C4.71794891 0.52520563 8.03516399 2.70957429 11.875 5.3125 C16.49644516 8.39515628 21.14878614 11.28902755 26 14 C26 14.66 26 15.32 26 16 C26.78375 16.185625 27.5675 16.37125 28.375 16.5625 C32.45468293 18.1803053 35.46785804 20.35744022 39 22.92578125 C43.17060074 25.80936067 47.52244465 28.35310018 51.90991211 30.89086914 C58.0361995 34.47821928 58.0361995 34.47821928 60 37 C60 37.66 60 38.32 60 39 C55.43823327 41.71533734 53.13244298 42.28949438 48 41 C45.2109375 39.58203125 45.2109375 39.58203125 42.375 37.8125 C38.43719522 35.42858387 34.51493204 33.19996697 30.375 31.1875 C25.11926843 28.61833818 20.0316397 25.80848382 14.9375 22.9375 C8.41940676 19.27004984 1.90607857 15.89020909 -5 13 C-4.54996653 7.37458159 -3.31558515 4.38512875 0 0 Z " fill="#000000" transform="translate(184,305)"/>
<path d="M0 0 C1.80078125 2.046875 1.80078125 2.046875 3.3125 4.75 C3.82425781 5.63171875 4.33601563 6.5134375 4.86328125 7.421875 C6 10 6 10 6 14 C-4.54106776 15.65048034 -15.06566312 17.19075661 -25.67895508 18.29589844 C-30.1686207 18.7707621 -34.60664169 19.38580309 -39.0625 20.125 C-52.17857143 22.21428571 -52.17857143 22.21428571 -57 19 C-57 18.34 -57 17.68 -57 17 C-58.32 16.67 -59.64 16.34 -61 16 C-61 14.68 -61 13.36 -61 12 C-60.34104736 11.86424561 -59.68209473 11.72849121 -59.00317383 11.58862305 C-44.56678905 8.64421249 -44.56678905 8.64421249 -30.1875 5.4375 C-24.80332186 4.17319906 -19.40667254 2.9762841 -14 1.8125 C-13.1855542 1.63323975 -12.3711084 1.45397949 -11.53198242 1.26928711 C-2.93976935 -0.56225097 -2.93976935 -0.56225097 0 0 Z " fill="#000000" transform="translate(459,351)"/>
<path d="M0 0 C7.1375634 0.45252563 13.14170142 3.39913507 19.625 6.25 C27.37139134 9.61918076 35.11993952 12.87425057 43.04052734 15.81542969 C46.12377479 17.04954259 49.03592586 18.50544875 52 20 C53.98867713 20.69971973 55.98608051 21.37664397 58 22 C56.13412528 26.06102144 54.17986235 27.90835062 50.00512695 29.56567383 C46.24222291 30.38074826 43.13977982 29.00016267 39.625 27.6875 C37.95345236 27.11102907 36.28155804 26.5355627 34.609375 25.9609375 C33.71412109 25.64479492 32.81886719 25.32865234 31.89648438 25.00292969 C26.59083932 23.16580984 21.22808272 21.50517594 15.875 19.8125 C8.90057834 17.5881696 1.9398325 15.33011008 -5 13 C-4.48474397 7.71862571 -2.74522883 4.42778844 0 0 Z " fill="#000000" transform="translate(171,327)"/>
<path d="M0 0 C1.33417969 0.17861572 1.33417969 0.17861572 2.6953125 0.36083984 C7.33357396 1.14007423 11.9144462 2.1016825 16.5 3.14453125 C17.4909668 3.36455811 18.48193359 3.58458496 19.50292969 3.8112793 C22.50339687 4.47861131 25.50197152 5.15383452 28.5 5.83203125 C31.12865688 6.42649782 33.75733662 7.02080962 36.38671875 7.61206055 C37.92656936 7.95900416 39.46567767 8.30926425 41.00390625 8.66333008 C43.90717423 9.320461 46.51200428 9.83203125 49.5 9.83203125 C49.5 13.83203125 49.5 13.83203125 47.92578125 15.5 C47.22839844 16.00144531 46.53101563 16.50289063 45.8125 17.01953125 C45.12800781 17.52871094 44.44351563 18.03789062 43.73828125 18.5625 C39.62813373 20.8937355 36.34776972 21.03467214 31.8125 20.01953125 C26.88283074 19.02963782 21.99561887 18.40558786 17 17.89453125 C7.43941516 16.90113073 -2.02037773 15.40846511 -11.5 13.83203125 C-11.5 12.51203125 -11.5 11.19203125 -11.5 9.83203125 C-10.84 9.50203125 -10.18 9.17203125 -9.5 8.83203125 C-9.190625 7.88328125 -8.88125 6.93453125 -8.5625 5.95703125 C-6.88627388 1.02695442 -5.26254713 -0.70747514 0 0 Z " fill="#000000" transform="translate(162.5,350.16796875)"/>
</svg>
