<svg viewBox="0 0 24 16" shape-rendering="crispEdges" xmlns="http://www.w3.org/2000/svg" role="img" aria-hidden="true"><rect width="24" height="16" fill="#d9d6c2"/><rect x="9" y="5" width="1" height="1" fill="#14100d"/><rect x="8" y="6" width="1" height="1" fill="#14100d"/><rect x="9" y="11" width="1" height="1" fill="#14100d"/><rect x="8" y="10" width="1" height="1" fill="#14100d"/><rect x="10" y="5" width="1" height="1" fill="#14100d"/><rect x="10" y="11" width="1" height="1" fill="#14100d"/><rect x="11" y="4" width="1" height="1" fill="#14100d"/><rect x="11" y="12" width="1" height="1" fill="#14100d"/><rect x="12" y="4" width="1" height="1" fill="#14100d"/><rect x="12" y="12" width="1" height="1" fill="#14100d"/><rect x="13" y="4" width="1" height="1" fill="#14100d"/><rect x="14" y="5" width="1" height="1" fill="#14100d"/><rect x="13" y="12" width="1" height="1" fill="#14100d"/><rect x="14" y="11" width="1" height="1" fill="#14100d"/><rect x="15" y="5" width="1" height="1" fill="#14100d"/><rect x="15" y="11" width="1" height="1" fill="#14100d"/><rect x="16" y="10" width="1" height="1" fill="#14100d"/><rect x="7" y="7" width="1" height="1" fill="#14100d"/><rect x="7" y="8" width="1" height="1" fill="#14100d"/><rect x="7" y="9" width="1" height="1" fill="#14100d"/><rect x="16" y="5" width="1" height="1" fill="#14100d"/><rect x="18" y="5" width="1" height="1" fill="#14100d"/><rect x="19" y="6" width="1" height="1" fill="#14100d"/><rect x="19" y="7" width="1" height="1" fill="#14100d"/><rect x="19" y="8" width="1" height="1" fill="#14100d"/><rect x="17" y="10" width="1" height="1" fill="#14100d"/><rect x="18" y="10" width="1" height="1" fill="#14100d"/><rect x="19" y="9" width="1" height="1" fill="#14100d"/><rect x="17" y="4" width="1" height="1" fill="#14100d"/><rect x="9" y="6" width="1" height="1" fill="#8c6580"/><rect x="9" y="7" width="1" height="1" fill="#6b3a5c"/><rect x="9" y="8" width="1" height="1" fill="#6b3a5c"/><rect x="9" y="9" width="1" height="1" fill="#532d48"/><rect x="9" y="10" width="1" height="1" fill="#532d48"/><rect x="10" y="6" width="1" height="1" fill="#677e61"/><rect x="10" y="7" width="1" height="1" fill="#677e61"/><rect x="10" y="8" width="1" height="1" fill="#3c5a34"/><rect x="10" y="9" width="1" height="1" fill="#2b4125"/><rect x="10" y="10" width="1" height="1" fill="#2b4125"/><rect x="11" y="5" width="1" height="1" fill="#8c6580"/><rect x="11" y="6" width="1" height="1" fill="#677e61"/><rect x="11" y="7" width="1" height="1" fill="#a6b3a2"/><rect x="11" y="8" width="1" height="1" fill="#3c5a34"/><rect x="11" y="9" width="1" height="1" fill="#2b4125"/><rect x="11" y="10" width="1" height="1" fill="#2b4125"/><rect x="11" y="11" width="1" height="1" fill="#2b4125"/><rect x="12" y="5" width="1" height="1" fill="#8c6580"/><rect x="12" y="6" width="1" height="1" fill="#677e61"/><rect x="12" y="7" width="1" height="1" fill="#a6b3a2"/><rect x="12" y="8" width="1" height="1" fill="#3c5a34"/><rect x="12" y="9" width="1" height="1" fill="#2b4125"/><rect x="12" y="10" width="1" height="1" fill="#2b4125"/><rect x="12" y="11" width="1" height="1" fill="#2b4125"/><rect x="13" y="5" width="1" height="1" fill="#677e61"/><rect x="13" y="6" width="1" height="1" fill="#677e61"/><rect x="13" y="7" width="1" height="1" fill="#677e61"/><rect x="13" y="8" width="1" height="1" fill="#3c5a34"/><rect x="13" y="9" width="1" height="1" fill="#2b4125"/><rect x="13" y="10" width="1" height="1" fill="#2b4125"/><rect x="13" y="11" width="1" height="1" fill="#2b4125"/><rect x="14" y="6" width="1" height="1" fill="#677e61"/><rect x="14" y="7" width="1" height="1" fill="#677e61"/><rect x="14" y="8" width="1" height="1" fill="#3c5a34"/><rect x="14" y="9" width="1" height="1" fill="#2b4125"/><rect x="14" y="10" width="1" height="1" fill="#2b4125"/><rect x="15" y="6" width="1" height="1" fill="#677e61"/><rect x="15" y="7" width="1" height="1" fill="#677e61"/><rect x="15" y="8" width="1" height="1" fill="#3c5a34"/><rect x="15" y="9" width="1" height="1" fill="#2b4125"/><rect x="15" y="10" width="1" height="1" fill="#2b4125"/><rect x="8" y="7" width="1" height="1" fill="#6b3a5c"/><rect x="8" y="8" width="1" height="1" fill="#6b3a5c"/><rect x="8" y="9" width="1" height="1" fill="#532d48"/><rect x="16" y="6" width="1" height="1" fill="#8c6580"/><rect x="17" y="6" width="1" height="1" fill="#141b21"/><rect x="18" y="6" width="1" height="1" fill="#8c6580"/><rect x="16" y="7" width="1" height="1" fill="#6b3a5c"/><rect x="17" y="7" width="1" height="1" fill="#6b3a5c"/><rect x="18" y="7" width="1" height="1" fill="#6b3a5c"/><rect x="16" y="8" width="1" height="1" fill="#6b3a5c"/><rect x="17" y="8" width="1" height="1" fill="#6b3a5c"/><rect x="18" y="8" width="1" height="1" fill="#6b3a5c"/><rect x="16" y="9" width="1" height="1" fill="#532d48"/><rect x="17" y="9" width="1" height="1" fill="#532d48"/><rect x="18" y="9" width="1" height="1" fill="#532d48"/><rect x="17" y="5" width="1" height="1" fill="#f4f1e4"/></svg>