<svg viewBox="0 0 24 16" shape-rendering="crispEdges" xmlns="http://www.w3.org/2000/svg" role="img" aria-hidden="true"><rect width="24" height="16" fill="#d9d6c2"/><rect x="12" y="0" width="1" height="1" fill="#14100d"/><rect x="12" y="1" width="1" height="1" fill="#14100d"/><rect x="12" y="2" width="1" height="1" fill="#14100d"/><rect x="7" y="2" width="1" height="1" fill="#14100d"/><rect x="9" y="4" width="1" height="1" fill="#14100d"/><rect x="8" y="4" width="1" height="1" fill="#14100d"/><rect x="7" y="3" width="1" height="1" fill="#14100d"/><rect x="14" y="2" width="1" height="1" fill="#14100d"/><rect x="15" y="3" width="1" height="1" fill="#14100d"/><rect x="13" y="2" width="1" height="1" fill="#14100d"/><rect x="15" y="4" width="1" height="1" fill="#14100d"/><rect x="15" y="5" width="1" height="1" fill="#14100d"/><rect x="14" y="7" width="1" height="1" fill="#14100d"/><rect x="15" y="6" width="1" height="1" fill="#14100d"/><rect x="9" y="6" width="1" height="1" fill="#14100d"/><rect x="9" y="7" width="1" height="1" fill="#14100d"/><rect x="14" y="8" width="1" height="1" fill="#14100d"/><rect x="9" y="8" width="1" height="1" fill="#14100d"/><rect x="11" y="10" width="1" height="1" fill="#14100d"/><rect x="10" y="10" width="1" height="1" fill="#14100d"/><rect x="9" y="9" width="1" height="1" fill="#14100d"/><rect x="15" y="8" width="1" height="1" fill="#14100d"/><rect x="16" y="9" width="1" height="1" fill="#14100d"/><rect x="16" y="10" width="1" height="1" fill="#14100d"/><rect x="16" y="11" width="1" height="1" fill="#14100d"/><rect x="11" y="11" width="1" height="1" fill="#14100d"/><rect x="15" y="13" width="1" height="1" fill="#14100d"/><rect x="16" y="12" width="1" height="1" fill="#14100d"/><rect x="10" y="12" width="1" height="1" fill="#14100d"/><rect x="10" y="13" width="1" height="1" fill="#14100d"/><rect x="15" y="14" width="1" height="1" fill="#14100d"/><rect x="10" y="14" width="1" height="1" fill="#14100d"/><rect x="10" y="15" width="1" height="1" fill="#14100d"/><rect x="5" y="0" width="1" height="1" fill="#14100d"/><rect x="6" y="2" width="1" height="1" fill="#14100d"/><rect x="5" y="1" width="1" height="1" fill="#14100d"/><rect x="9" y="5" width="1" height="1" fill="#14100d"/><rect x="16" y="13" width="1" height="1" fill="#14100d"/><rect x="17" y="14" width="1" height="1" fill="#14100d"/><rect x="17" y="15" width="1" height="1" fill="#14100d"/><rect x="11" y="0" width="1" height="1" fill="#c3655a"/><rect x="10" y="0" width="1" height="1" fill="#c3655a"/><rect x="9" y="0" width="1" height="1" fill="#c3655a"/><rect x="8" y="0" width="1" height="1" fill="#677e61"/><rect x="11" y="1" width="1" height="1" fill="#c3655a"/><rect x="10" y="1" width="1" height="1" fill="#c3655a"/><rect x="9" y="1" width="1" height="1" fill="#141b21"/><rect x="8" y="1" width="1" height="1" fill="#f4f1e4"/><rect x="11" y="2" width="1" height="1" fill="#c3655a"/><rect x="10" y="2" width="1" height="1" fill="#d69790"/><rect x="9" y="2" width="1" height="1" fill="#c3655a"/><rect x="8" y="2" width="1" height="1" fill="#c3655a"/><rect x="11" y="3" width="1" height="1" fill="#d69790"/><rect x="10" y="3" width="1" height="1" fill="#c3655a"/><rect x="9" y="3" width="1" height="1" fill="#c3655a"/><rect x="8" y="3" width="1" height="1" fill="#c3655a"/><rect x="14" y="3" width="1" height="1" fill="#c3655a"/><rect x="13" y="3" width="1" height="1" fill="#c3655a"/><rect x="12" y="3" width="1" height="1" fill="#c3655a"/><rect x="14" y="4" width="1" height="1" fill="#c3655a"/><rect x="13" y="4" width="1" height="1" fill="#c3655a"/><rect x="12" y="4" width="1" height="1" fill="#c3655a"/><rect x="11" y="4" width="1" height="1" fill="#677e61"/><rect x="14" y="5" width="1" height="1" fill="#c3655a"/><rect x="13" y="5" width="1" height="1" fill="#c3655a"/><rect x="12" y="5" width="1" height="1" fill="#d69790"/><rect x="11" y="5" width="1" height="1" fill="#677e61"/><rect x="14" y="6" width="1" height="1" fill="#b23a2c"/><rect x="13" y="6" width="1" height="1" fill="#b23a2c"/><rect x="12" y="6" width="1" height="1" fill="#b23a2c"/><rect x="11" y="6" width="1" height="1" fill="#b23a2c"/><rect x="10" y="6" width="1" height="1" fill="#b23a2c"/><rect x="13" y="7" width="1" height="1" fill="#b23a2c"/><rect x="12" y="7" width="1" height="1" fill="#b23a2c"/><rect x="11" y="7" width="1" height="1" fill="#b23a2c"/><rect x="10" y="7" width="1" height="1" fill="#b23a2c"/><rect x="13" y="8" width="1" height="1" fill="#b23a2c"/><rect x="12" y="8" width="1" height="1" fill="#b23a2c"/><rect x="11" y="8" width="1" height="1" fill="#b23a2c"/><rect x="10" y="8" width="1" height="1" fill="#b23a2c"/><rect x="13" y="9" width="1" height="1" fill="#b23a2c"/><rect x="12" y="9" width="1" height="1" fill="#b23a2c"/><rect x="11" y="9" width="1" height="1" fill="#b23a2c"/><rect x="10" y="9" width="1" height="1" fill="#b23a2c"/><rect x="15" y="9" width="1" height="1" fill="#b23a2c"/><rect x="14" y="9" width="1" height="1" fill="#b23a2c"/><rect x="15" y="10" width="1" height="1" fill="#802a20"/><rect x="14" y="10" width="1" height="1" fill="#802a20"/><rect x="13" y="10" width="1" height="1" fill="#802a20"/><rect x="12" y="10" width="1" height="1" fill="#802a20"/><rect x="15" y="11" width="1" height="1" fill="#802a20"/><rect x="14" y="11" width="1" height="1" fill="#802a20"/><rect x="13" y="11" width="1" height="1" fill="#802a20"/><rect x="12" y="11" width="1" height="1" fill="#802a20"/><rect x="15" y="12" width="1" height="1" fill="#802a20"/><rect x="14" y="12" width="1" height="1" fill="#802a20"/><rect x="13" y="12" width="1" height="1" fill="#802a20"/><rect x="12" y="12" width="1" height="1" fill="#802a20"/><rect x="11" y="12" width="1" height="1" fill="#802a20"/><rect x="14" y="13" width="1" height="1" fill="#802a20"/><rect x="13" y="13" width="1" height="1" fill="#802a20"/><rect x="12" y="13" width="1" height="1" fill="#802a20"/><rect x="11" y="13" width="1" height="1" fill="#802a20"/><rect x="14" y="14" width="1" height="1" fill="#802a20"/><rect x="13" y="14" width="1" height="1" fill="#802a20"/><rect x="12" y="14" width="1" height="1" fill="#802a20"/><rect x="11" y="14" width="1" height="1" fill="#802a20"/><rect x="14" y="15" width="1" height="1" fill="#802a20"/><rect x="13" y="15" width="1" height="1" fill="#802a20"/><rect x="12" y="15" width="1" height="1" fill="#802a20"/><rect x="11" y="15" width="1" height="1" fill="#802a20"/><rect x="7" y="0" width="1" height="1" fill="#677e61"/><rect x="6" y="0" width="1" height="1" fill="#677e61"/><rect x="7" y="1" width="1" height="1" fill="#677e61"/><rect x="6" y="1" width="1" height="1" fill="#677e61"/><rect x="10" y="4" width="1" height="1" fill="#677e61"/><rect x="10" y="5" width="1" height="1" fill="#677e61"/><rect x="16" y="14" width="1" height="1" fill="#2f4629"/><rect x="16" y="15" width="1" height="1" fill="#2f4629"/><rect x="15" y="15" width="1" height="1" fill="#2f4629"/></svg>